STARTFONT 2.1
FONT -FontForge-DejaVu Sans-Book-R-Normal-Sans-18-170-75-75-P-112-ISO10646-1
SIZE 17 75 75
FONTBOUNDINGBOX 27 23 -2 -5
COMMENT "Generated by fontforge, http://fontforge.sourceforge.net"
COMMENT "Copyright (c) 2003 by Bitstream, Inc. All Rights Reserved."
COMMENT "Copyright (c) 2006 by Tavmjong Bah. All Rights Reserved."
COMMENT "DejaVu changes are in public domain"
STARTPROPERTIES 40
FOUNDRY "FontForge"
FAMILY_NAME "DejaVu Sans"
WEIGHT_NAME "Book"
SLANT "R"
SETWIDTH_NAME "Normal"
ADD_STYLE_NAME "Sans"
PIXEL_SIZE 18
POINT_SIZE 170
RESOLUTION_X 75
RESOLUTION_Y 75
SPACING "P"
AVERAGE_WIDTH 112
CHARSET_REGISTRY "ISO10646"
CHARSET_ENCODING "1"
FONTNAME_REGISTRY ""
CHARSET_COLLECTIONS "ASCII ISOLatin1Encoding ISO8859-2 ISO8859-5 ISO8859-7 ISO8859-9 ISO8859-8 ISO8859-6 ISO8859-4 Symbol ISO10646-1"
FONT_NAME "DejaVuSans"
FACE_NAME "DejaVu Sans"
COPYRIGHT "Copyright (c) 2003 by Bitstream, Inc. All Rights Reserved."
FONT_VERSION "2.37"
FONT_ASCENT 14
FONT_DESCENT 4
UNDERLINE_POSITION -2
UNDERLINE_THICKNESS 1
X_HEIGHT 9
CAP_HEIGHT 12
RAW_ASCENT 759
RAW_DESCENT 240
NORM_SPACE 6
RELATIVE_WEIGHT 40
RELATIVE_SETWIDTH 50
SUPERSCRIPT_X 0
SUPERSCRIPT_Y 8
SUPERSCRIPT_SIZE 12
SUBSCRIPT_X 0
SUBSCRIPT_Y 2
SUBSCRIPT_SIZE 12
FIGURE_WIDTH 11
AVG_LOWERCASE_WIDTH 100
AVG_UPPERCASE_WIDTH 125
ENDPROPERTIES
CHARS 443
STARTCHAR space
ENCODING 32
SWIDTH 317 0
DWIDTH 6 0
BBX 1 1 0 0
BITMAP
00
ENDCHAR
STARTCHAR exclam
ENCODING 33
SWIDTH 400 0
DWIDTH 7 0
BBX 2 13 3 0
BITMAP
C0
C0
C0
C0
C0
C0
C0
C0
C0
00
00
C0
C0
ENDCHAR
STARTCHAR quotedbl
ENCODING 34
SWIDTH 459 0
DWIDTH 8 0
BBX 6 5 1 8
BITMAP
CC
CC
CC
CC
CC
ENDCHAR
STARTCHAR numbersign
ENCODING 35
SWIDTH 837 0
DWIDTH 15 0
BBX 12 14 1 0
BITMAP
0440
0440
0CC0
0C80
7FF0
7FF0
0980
1900
FFE0
FFE0
1300
3300
3200
2200
ENDCHAR
STARTCHAR dollar
ENCODING 36
SWIDTH 636 0
DWIDTH 11 0
BBX 9 17 1 -3
BITMAP
0800
0800
3E00
7F00
E900
C800
F800
7E00
1F00
0980
0980
8B80
FF00
7E00
0800
0800
0800
ENDCHAR
STARTCHAR percent
ENCODING 37
SWIDTH 950 0
DWIDTH 17 0
BBX 15 13 1 0
BITMAP
7810
CC20
CC60
CC40
CC80
CC80
793C
0266
0266
0466
0C66
0866
103C
ENDCHAR
STARTCHAR ampersand
ENCODING 38
SWIDTH 779 0
DWIDTH 13 0
BBX 12 13 1 0
BITMAP
0F00
1F80
3080
3000
3800
3C00
6E60
C760
C3C0
C180
E1C0
7FE0
3E70
ENDCHAR
STARTCHAR quotesingle
ENCODING 39
SWIDTH 274 0
DWIDTH 4 0
BBX 2 5 1 8
BITMAP
C0
C0
C0
C0
C0
ENDCHAR
STARTCHAR parenleft
ENCODING 40
SWIDTH 390 0
DWIDTH 7 0
BBX 4 16 2 -2
BITMAP
30
20
60
60
40
C0
C0
C0
C0
C0
C0
40
60
60
20
30
ENDCHAR
STARTCHAR parenright
ENCODING 41
SWIDTH 390 0
DWIDTH 7 0
BBX 4 16 1 -2
BITMAP
C0
40
60
60
20
30
30
30
30
30
30
20
60
60
40
C0
ENDCHAR
STARTCHAR asterisk
ENCODING 42
SWIDTH 500 0
DWIDTH 9 0
BBX 7 8 1 5
BITMAP
10
92
54
38
38
54
92
10
ENDCHAR
STARTCHAR plus
ENCODING 43
SWIDTH 837 0
DWIDTH 15 0
BBX 12 12 2 0
BITMAP
0600
0600
0600
0600
0600
FFF0
FFF0
0600
0600
0600
0600
0600
ENDCHAR
STARTCHAR comma
ENCODING 44
SWIDTH 317 0
DWIDTH 6 0
BBX 3 4 1 -2
BITMAP
60
60
40
80
ENDCHAR
STARTCHAR hyphen
ENCODING 45
SWIDTH 360 0
DWIDTH 7 0
BBX 5 2 1 4
BITMAP
F8
F8
ENDCHAR
STARTCHAR period
ENCODING 46
SWIDTH 317 0
DWIDTH 6 0
BBX 2 2 2 0
BITMAP
C0
C0
ENDCHAR
STARTCHAR slash
ENCODING 47
SWIDTH 336 0
DWIDTH 6 0
BBX 6 15 0 -2
BITMAP
0C
0C
18
18
18
38
30
30
30
70
60
60
60
C0
C0
ENDCHAR
STARTCHAR zero
ENCODING 48
SWIDTH 636 0
DWIDTH 11 0
BBX 9 13 1 0
BITMAP
3E00
7F00
6300
C180
C180
C180
C180
C180
C180
C180
6300
7F00
3E00
ENDCHAR
STARTCHAR one
ENCODING 49
SWIDTH 636 0
DWIDTH 11 0
BBX 8 13 2 0
BITMAP
38
F8
D8
18
18
18
18
18
18
18
18
FF
FF
ENDCHAR
STARTCHAR two
ENCODING 50
SWIDTH 636 0
DWIDTH 11 0
BBX 8 13 1 0
BITMAP
7C
FE
87
03
03
07
06
0C
18
30
60
FF
FF
ENDCHAR
STARTCHAR three
ENCODING 51
SWIDTH 636 0
DWIDTH 11 0
BBX 9 13 1 0
BITMAP
7E00
FF00
8380
0180
0380
3F00
3F00
0380
0180
0180
8380
FF00
7E00
ENDCHAR
STARTCHAR four
ENCODING 52
SWIDTH 636 0
DWIDTH 11 0
BBX 10 13 1 0
BITMAP
0700
0700
0B00
1B00
1300
2300
6300
4300
FFC0
FFC0
0300
0300
0300
ENDCHAR
STARTCHAR five
ENCODING 53
SWIDTH 636 0
DWIDTH 11 0
BBX 8 13 1 0
BITMAP
7E
7E
60
60
7C
7E
47
03
03
03
87
FE
7C
ENDCHAR
STARTCHAR six
ENCODING 54
SWIDTH 636 0
DWIDTH 11 0
BBX 9 13 1 0
BITMAP
1E00
3F00
7100
E000
C000
DE00
FF00
E380
C180
C180
6380
7F00
3E00
ENDCHAR
STARTCHAR seven
ENCODING 55
SWIDTH 636 0
DWIDTH 11 0
BBX 8 13 1 0
BITMAP
FF
FF
06
06
06
0E
0C
0C
1C
18
18
38
30
ENDCHAR
STARTCHAR eight
ENCODING 56
SWIDTH 636 0
DWIDTH 11 0
BBX 9 13 1 0
BITMAP
3E00
7F00
E380
C180
E380
7F00
7F00
E380
C180
C180
E380
7F00
3E00
ENDCHAR
STARTCHAR nine
ENCODING 57
SWIDTH 636 0
DWIDTH 11 0
BBX 9 13 1 0
BITMAP
3E00
7F00
E300
C180
C180
E380
7F80
3D80
0180
0380
4700
7E00
3C00
ENDCHAR
STARTCHAR colon
ENCODING 58
SWIDTH 336 0
DWIDTH 6 0
BBX 2 9 2 0
BITMAP
C0
C0
00
00
00
00
00
C0
C0
ENDCHAR
STARTCHAR semicolon
ENCODING 59
SWIDTH 336 0
DWIDTH 6 0
BBX 3 11 1 -2
BITMAP
60
60
00
00
00
00
00
60
60
40
80
ENDCHAR
STARTCHAR less
ENCODING 60
SWIDTH 837 0
DWIDTH 15 0
BBX 11 10 2 0
BITMAP
0020
01E0
07C0
3E00
F800
F800
3E00
07C0
01E0
0020
ENDCHAR
STARTCHAR equal
ENCODING 61
SWIDTH 837 0
DWIDTH 15 0
BBX 11 6 2 3
BITMAP
FFE0
FFE0
0000
0000
FFE0
FFE0
ENDCHAR
STARTCHAR greater
ENCODING 62
SWIDTH 837 0
DWIDTH 15 0
BBX 11 10 2 0
BITMAP
8000
F000
7C00
0F80
03E0
03E0
0F80
7C00
F000
8000
ENDCHAR
STARTCHAR question
ENCODING 63
SWIDTH 530 0
DWIDTH 10 0
BBX 7 13 1 0
BITMAP
78
FE
86
06
06
0C
18
30
30
30
00
30
30
ENDCHAR
STARTCHAR at
ENCODING 64
SWIDTH 1000 0
DWIDTH 18 0
BBX 16 16 1 -3
BITMAP
07E0
1FF8
3C1C
7006
6003
E363
C7E3
C663
C666
C7FC
E370
6000
7000
3810
1FF0
07C0
ENDCHAR
STARTCHAR A
ENCODING 65
SWIDTH 684 0
DWIDTH 12 0
BBX 12 13 0 0
BITMAP
0600
0600
0F00
0F00
1980
1980
1980
30C0
3FC0
7FE0
6060
6060
C030
ENDCHAR
STARTCHAR B
ENCODING 66
SWIDTH 686 0
DWIDTH 12 0
BBX 9 13 2 0
BITMAP
FE00
FF00
C300
C300
C300
FE00
FE00
C300
C180
C180
C380
FF00
FE00
ENDCHAR
STARTCHAR C
ENCODING 67
SWIDTH 698 0
DWIDTH 13 0
BBX 11 13 1 0
BITMAP
0FC0
3FE0
7020
6000
C000
C000
C000
C000
C000
6000
7020
3FE0
0FC0
ENDCHAR
STARTCHAR D
ENCODING 68
SWIDTH 770 0
DWIDTH 14 0
BBX 11 13 2 0
BITMAP
FE00
FF80
C1C0
C0E0
C060
C060
C060
C060
C060
C0E0
C1C0
FF80
FE00
ENDCHAR
STARTCHAR E
ENCODING 69
SWIDTH 631 0
DWIDTH 11 0
BBX 8 13 2 0
BITMAP
FF
FF
C0
C0
C0
FF
FF
C0
C0
C0
C0
FF
FF
ENDCHAR
STARTCHAR F
ENCODING 70
SWIDTH 575 0
DWIDTH 10 0
BBX 8 13 2 0
BITMAP
FF
FF
C0
C0
C0
FE
FE
C0
C0
C0
C0
C0
C0
ENDCHAR
STARTCHAR G
ENCODING 71
SWIDTH 774 0
DWIDTH 14 0
BBX 11 13 1 0
BITMAP
0FC0
3FE0
7020
6000
C000
C3E0
C3E0
C060
C060
6060
7060
3FC0
1F80
ENDCHAR
STARTCHAR H
ENCODING 72
SWIDTH 751 0
DWIDTH 14 0
BBX 10 13 2 0
BITMAP
C0C0
C0C0
C0C0
C0C0
C0C0
FFC0
FFC0
C0C0
C0C0
C0C0
C0C0
C0C0
C0C0
ENDCHAR
STARTCHAR I
ENCODING 73
SWIDTH 294 0
DWIDTH 6 0
BBX 2 13 2 0
BITMAP
C0
C0
C0
C0
C0
C0
C0
C0
C0
C0
C0
C0
C0
ENDCHAR
STARTCHAR J
ENCODING 74
SWIDTH 294 0
DWIDTH 6 0
BBX 5 17 -1 -4
BITMAP
18
18
18
18
18
18
18
18
18
18
18
18
18
18
38
F0
E0
ENDCHAR
STARTCHAR K
ENCODING 75
SWIDTH 655 0
DWIDTH 12 0
BBX 10 13 2 0
BITMAP
C180
C300
C600
CC00
D800
F000
F000
D800
CC00
C600
C300
C180
C0C0
ENDCHAR
STARTCHAR L
ENCODING 76
SWIDTH 557 0
DWIDTH 10 0
BBX 8 13 2 0
BITMAP
C0
C0
C0
C0
C0
C0
C0
C0
C0
C0
C0
FF
FF
ENDCHAR
STARTCHAR M
ENCODING 77
SWIDTH 862 0
DWIDTH 16 0
BBX 12 13 2 0
BITMAP
E070
F0F0
F0F0
D8B0
D9B0
D9B0
CF30
CF30
C630
C630
C030
C030
C030
ENDCHAR
STARTCHAR N
ENCODING 78
SWIDTH 748 0
DWIDTH 14 0
BBX 10 13 2 0
BITMAP
E0C0
E0C0
F0C0
F0C0
D8C0
D8C0
CCC0
C6C0
C6C0
C3C0
C3C0
C1C0
C1C0
ENDCHAR
STARTCHAR O
ENCODING 79
SWIDTH 787 0
DWIDTH 14 0
BBX 12 13 1 0
BITMAP
1F80
3FC0
70E0
6060
C030
C030
C030
C030
C030
6060
70E0
3FC0
1F80
ENDCHAR
STARTCHAR P
ENCODING 80
SWIDTH 603 0
DWIDTH 11 0
BBX 8 13 2 0
BITMAP
FC
FE
C7
C3
C3
C7
FE
FC
C0
C0
C0
C0
C0
ENDCHAR
STARTCHAR Q
ENCODING 81
SWIDTH 787 0
DWIDTH 14 0
BBX 12 15 1 -2
BITMAP
1F80
3FC0
70E0
6060
C030
C030
C030
C030
C030
6060
70E0
3FC0
1F80
0180
00C0
ENDCHAR
STARTCHAR R
ENCODING 82
SWIDTH 694 0
DWIDTH 13 0
BBX 10 13 2 0
BITMAP
FC00
FE00
C700
C300
C300
C700
FE00
FC00
C600
C300
C300
C180
C1C0
ENDCHAR
STARTCHAR S
ENCODING 83
SWIDTH 634 0
DWIDTH 11 0
BBX 9 13 1 0
BITMAP
3E00
7F00
E100
C000
C000
7C00
3F00
0380
0180
0180
8380
FF00
7E00
ENDCHAR
STARTCHAR T
ENCODING 84
SWIDTH 610 0
DWIDTH 12 0
BBX 12 13 0 0
BITMAP
FFF0
FFF0
0600
0600
0600
0600
0600
0600
0600
0600
0600
0600
0600
ENDCHAR
STARTCHAR U
ENCODING 85
SWIDTH 731 0
DWIDTH 14 0
BBX 10 13 2 0
BITMAP
C0C0
C0C0
C0C0
C0C0
C0C0
C0C0
C0C0
C0C0
C0C0
C0C0
6180
7F80
3F00
ENDCHAR
STARTCHAR V
ENCODING 86
SWIDTH 684 0
DWIDTH 12 0
BBX 12 13 0 0
BITMAP
C030
6060
6060
6060
30C0
30C0
1980
1980
1980
0F00
0F00
0600
0600
ENDCHAR
STARTCHAR W
ENCODING 87
SWIDTH 988 0
DWIDTH 19 0
BBX 17 13 1 0
BITMAP
C1C180
C1C180
636300
636300
636300
636300
363600
363600
363600
363600
1C1C00
1C1C00
1C1C00
ENDCHAR
STARTCHAR X
ENCODING 88
SWIDTH 685 0
DWIDTH 13 0
BBX 11 13 1 0
BITMAP
70E0
30C0
3980
1B80
0F00
0E00
0E00
0F00
1B00
3980
31C0
60C0
E0E0
ENDCHAR
STARTCHAR Y
ENCODING 89
SWIDTH 610 0
DWIDTH 12 0
BBX 12 13 0 0
BITMAP
E070
6060
30C0
1980
1980
0F00
0600
0600
0600
0600
0600
0600
0600
ENDCHAR
STARTCHAR Z
ENCODING 90
SWIDTH 685 0
DWIDTH 13 0
BBX 11 13 1 0
BITMAP
FFE0
FFE0
01C0
0380
0300
0700
0E00
1C00
1800
3000
7000
FFE0
FFE0
ENDCHAR
STARTCHAR bracketleft
ENCODING 91
SWIDTH 390 0
DWIDTH 7 0
BBX 4 16 1 -2
BITMAP
F0
F0
C0
C0
C0
C0
C0
C0
C0
C0
C0
C0
C0
C0
F0
F0
ENDCHAR
STARTCHAR backslash
ENCODING 92
SWIDTH 336 0
DWIDTH 6 0
BBX 6 15 0 -2
BITMAP
C0
C0
60
60
60
70
30
30
30
38
18
18
18
0C
0C
ENDCHAR
STARTCHAR bracketright
ENCODING 93
SWIDTH 390 0
DWIDTH 7 0
BBX 4 16 2 -2
BITMAP
F0
F0
30
30
30
30
30
30
30
30
30
30
30
30
F0
F0
ENDCHAR
STARTCHAR asciicircum
ENCODING 94
SWIDTH 837 0
DWIDTH 15 0
BBX 11 5 2 8
BITMAP
0E00
1B00
3180
60C0
C060
ENDCHAR
STARTCHAR underscore
ENCODING 95
SWIDTH 500 0
DWIDTH 9 0
BBX 9 2 0 -4
BITMAP
FF80
FF80
ENDCHAR
STARTCHAR grave
ENCODING 96
SWIDTH 500 0
DWIDTH 9 0
BBX 4 3 2 11
BITMAP
C0
60
30
ENDCHAR
STARTCHAR a
ENCODING 97
SWIDTH 612 0
DWIDTH 10 0
BBX 8 10 1 0
BITMAP
3C
7E
47
03
3F
FF
C3
C7
FF
7B
ENDCHAR
STARTCHAR b
ENCODING 98
SWIDTH 634 0
DWIDTH 11 0
BBX 9 14 2 0
BITMAP
C000
C000
C000
C000
DE00
FF00
E380
C180
C180
C180
C180
E380
FF00
DE00
ENDCHAR
STARTCHAR c
ENCODING 99
SWIDTH 549 0
DWIDTH 9 0
BBX 8 10 1 0
BITMAP
1E
7F
61
C0
C0
C0
C0
61
7F
1E
ENDCHAR
STARTCHAR d
ENCODING 100
SWIDTH 634 0
DWIDTH 11 0
BBX 9 14 1 0
BITMAP
0180
0180
0180
0180
3D80
7F80
E380
C180
C180
C180
C180
E380
7F80
3D80
ENDCHAR
STARTCHAR e
ENCODING 101
SWIDTH 615 0
DWIDTH 11 0
BBX 10 10 1 0
BITMAP
1F00
7F80
61C0
C0C0
FFC0
FFC0
C000
6040
7FC0
1F80
ENDCHAR
STARTCHAR f
ENCODING 102
SWIDTH 352 0
DWIDTH 6 0
BBX 7 14 0 0
BITMAP
1E
3E
30
30
FE
FE
30
30
30
30
30
30
30
30
ENDCHAR
STARTCHAR g
ENCODING 103
SWIDTH 634 0
DWIDTH 11 0
BBX 9 14 1 -4
BITMAP
3D80
7F80
E380
C180
C180
C180
C180
E380
7F80
3D80
0180
4300
7F00
3E00
ENDCHAR
STARTCHAR h
ENCODING 104
SWIDTH 633 0
DWIDTH 11 0
BBX 8 14 2 0
BITMAP
C0
C0
C0
C0
DE
FE
E7
C3
C3
C3
C3
C3
C3
C3
ENDCHAR
STARTCHAR i
ENCODING 105
SWIDTH 277 0
DWIDTH 5 0
BBX 2 14 2 0
BITMAP
C0
C0
00
00
C0
C0
C0
C0
C0
C0
C0
C0
C0
C0
ENDCHAR
STARTCHAR j
ENCODING 106
SWIDTH 277 0
DWIDTH 5 0
BBX 4 18 0 -4
BITMAP
30
30
00
00
30
30
30
30
30
30
30
30
30
30
30
30
F0
E0
ENDCHAR
STARTCHAR k
ENCODING 107
SWIDTH 579 0
DWIDTH 10 0
BBX 8 14 2 0
BITMAP
C0
C0
C0
C0
C3
C6
CC
D8
F0
F0
D8
CC
C6
C3
ENDCHAR
STARTCHAR l
ENCODING 108
SWIDTH 277 0
DWIDTH 5 0
BBX 2 14 2 0
BITMAP
C0
C0
C0
C0
C0
C0
C0
C0
C0
C0
C0
C0
C0
C0
ENDCHAR
STARTCHAR m
ENCODING 109
SWIDTH 974 0
DWIDTH 17 0
BBX 14 10 2 0
BITMAP
DE78
FEF8
E38C
C30C
C30C
C30C
C30C
C30C
C30C
C30C
ENDCHAR
STARTCHAR n
ENCODING 110
SWIDTH 633 0
DWIDTH 11 0
BBX 8 10 2 0
BITMAP
DE
FE
E7
C3
C3
C3
C3
C3
C3
C3
ENDCHAR
STARTCHAR o
ENCODING 111
SWIDTH 611 0
DWIDTH 11 0
BBX 10 10 1 0
BITMAP
1E00
7F80
6180
C0C0
C0C0
C0C0
C0C0
6180
7F80
1E00
ENDCHAR
STARTCHAR p
ENCODING 112
SWIDTH 634 0
DWIDTH 11 0
BBX 9 14 2 -4
BITMAP
DE00
FF00
E380
C180
C180
C180
C180
E380
FF00
DE00
C000
C000
C000
C000
ENDCHAR
STARTCHAR q
ENCODING 113
SWIDTH 634 0
DWIDTH 11 0
BBX 9 14 1 -4
BITMAP
3D80
7F80
E380
C180
C180
C180
C180
E380
7F80
3D80
0180
0180
0180
0180
ENDCHAR
STARTCHAR r
ENCODING 114
SWIDTH 411 0
DWIDTH 8 0
BBX 6 10 2 0
BITMAP
DC
FC
E0
C0
C0
C0
C0
C0
C0
C0
ENDCHAR
STARTCHAR s
ENCODING 115
SWIDTH 520 0
DWIDTH 8 0
BBX 7 10 1 0
BITMAP
7C
FE
C2
E0
7C
1E
06
86
FE
7C
ENDCHAR
STARTCHAR t
ENCODING 116
SWIDTH 392 0
DWIDTH 7 0
BBX 6 13 1 0
BITMAP
60
60
60
FC
FC
60
60
60
60
60
60
7C
3C
ENDCHAR
STARTCHAR u
ENCODING 117
SWIDTH 633 0
DWIDTH 11 0
BBX 8 10 2 0
BITMAP
C3
C3
C3
C3
C3
C3
C3
E7
7F
7B
ENDCHAR
STARTCHAR v
ENCODING 118
SWIDTH 591 0
DWIDTH 11 0
BBX 10 10 1 0
BITMAP
C0C0
C0C0
6180
6180
3300
3300
3300
1E00
1E00
0C00
ENDCHAR
STARTCHAR w
ENCODING 119
SWIDTH 817 0
DWIDTH 16 0
BBX 13 10 2 0
BITMAP
C718
C718
C518
6DB0
6DB0
6DB0
68B0
38E0
38E0
38E0
ENDCHAR
STARTCHAR x
ENCODING 120
SWIDTH 591 0
DWIDTH 11 0
BBX 10 10 1 0
BITMAP
E1C0
6180
3300
3300
1E00
1E00
3300
3300
6180
E1C0
ENDCHAR
STARTCHAR y
ENCODING 121
SWIDTH 591 0
DWIDTH 11 0
BBX 10 14 1 -4
BITMAP
C0C0
C0C0
6180
6180
3300
3300
1E00
1E00
0C00
0C00
0C00
1800
7800
7000
ENDCHAR
STARTCHAR z
ENCODING 122
SWIDTH 524 0
DWIDTH 9 0
BBX 8 10 1 0
BITMAP
FF
FF
06
0C
1C
38
30
70
FF
FF
ENDCHAR
STARTCHAR braceleft
ENCODING 123
SWIDTH 636 0
DWIDTH 11 0
BBX 8 17 2 -3
BITMAP
0F
1F
18
18
18
18
18
F0
F0
38
18
18
18
18
18
1F
0F
ENDCHAR
STARTCHAR bar
ENCODING 124
SWIDTH 336 0
DWIDTH 6 0
BBX 2 18 2 -4
BITMAP
C0
C0
C0
C0
C0
C0
C0
C0
C0
C0
C0
C0
C0
C0
C0
C0
C0
C0
ENDCHAR
STARTCHAR braceright
ENCODING 125
SWIDTH 636 0
DWIDTH 11 0
BBX 8 17 2 -3
BITMAP
F0
F8
18
18
18
18
18
0F
0F
1C
18
18
18
18
18
F8
F0
ENDCHAR
STARTCHAR asciitilde
ENCODING 126
SWIDTH 837 0
DWIDTH 15 0
BBX 11 3 2 5
BITMAP
7C20
FFE0
87C0
ENDCHAR
STARTCHAR Agrave
ENCODING 192
SWIDTH 684 0
DWIDTH 12 0
BBX 12 16 0 0
BITMAP
0E00
0700
0000
0600
0600
0F00
0F00
1980
1980
1980
30C0
3FC0
7FE0
6060
6060
C030
ENDCHAR
STARTCHAR Aacute
ENCODING 193
SWIDTH 684 0
DWIDTH 12 0
BBX 12 16 0 0
BITMAP
0300
0600
0000
0600
0600
0F00
0F00
1980
1980
1980
30C0
3FC0
7FE0
6060
6060
C030
ENDCHAR
STARTCHAR Acircumflex
ENCODING 194
SWIDTH 684 0
DWIDTH 12 0
BBX 12 16 0 0
BITMAP
0600
0900
0000
0600
0600
0F00
0F00
1980
1980
1980
30C0
3FC0
7FE0
6060
6060
C030
ENDCHAR
STARTCHAR Atilde
ENCODING 195
SWIDTH 684 0
DWIDTH 12 0
BBX 12 16 0 0
BITMAP
0C80
1300
0000
0600
0600
0F00
0F00
1980
1980
1980
30C0
3FC0
7FE0
6060
6060
C030
ENDCHAR
STARTCHAR Adieresis
ENCODING 196
SWIDTH 684 0
DWIDTH 12 0
BBX 12 16 0 0
BITMAP
1980
1980
0000
0600
0600
0F00
0F00
1980
1980
1980
30C0
3FC0
7FE0
6060
6060
C030
ENDCHAR
STARTCHAR Aring
ENCODING 197
SWIDTH 684 0
DWIDTH 12 0
BBX 12 17 0 0
BITMAP
0600
0900
0900
0900
0600
0600
0F00
0F00
1980
1980
1980
30C0
3FC0
7FE0
6060
6060
C030
ENDCHAR
STARTCHAR AE
ENCODING 198
SWIDTH 974 0
DWIDTH 17 0
BBX 16 13 0 0
BITMAP
07FF
07FF
06C0
0CC0
0CC0
18FF
18FF
30C0
3FC0
3FC0
60C0
60FF
C0FF
ENDCHAR
STARTCHAR Ccedilla
ENCODING 199
SWIDTH 698 0
DWIDTH 13 0
BBX 11 16 1 -3
BITMAP
0FC0
3FE0
7020
6000
C000
C000
C000
C000
C000
6000
7020
3FE0
0FC0
0100
0180
0700
ENDCHAR
STARTCHAR Egrave
ENCODING 200
SWIDTH 631 0
DWIDTH 11 0
BBX 8 16 2 0
BITMAP
30
18
00
FF
FF
C0
C0
C0
FF
FF
C0
C0
C0
C0
FF
FF
ENDCHAR
STARTCHAR Eacute
ENCODING 201
SWIDTH 631 0
DWIDTH 11 0
BBX 8 16 2 0
BITMAP
08
10
00
FF
FF
C0
C0
C0
FF
FF
C0
C0
C0
C0
FF
FF
ENDCHAR
STARTCHAR Ecircumflex
ENCODING 202
SWIDTH 631 0
DWIDTH 11 0
BBX 8 16 2 0
BITMAP
18
24
00
FF
FF
C0
C0
C0
FF
FF
C0
C0
C0
C0
FF
FF
ENDCHAR
STARTCHAR Edieresis
ENCODING 203
SWIDTH 631 0
DWIDTH 11 0
BBX 8 16 2 0
BITMAP
66
66
00
FF
FF
C0
C0
C0
FF
FF
C0
C0
C0
C0
FF
FF
ENDCHAR
STARTCHAR Igrave
ENCODING 204
SWIDTH 294 0
DWIDTH 6 0
BBX 3 16 1 0
BITMAP
C0
60
00
60
60
60
60
60
60
60
60
60
60
60
60
60
ENDCHAR
STARTCHAR Iacute
ENCODING 205
SWIDTH 294 0
DWIDTH 6 0
BBX 2 16 2 0
BITMAP
C0
80
00
C0
C0
C0
C0
C0
C0
C0
C0
C0
C0
C0
C0
C0
ENDCHAR
STARTCHAR Icircumflex
ENCODING 206
SWIDTH 294 0
DWIDTH 6 0
BBX 4 16 1 0
BITMAP
60
90
00
60
60
60
60
60
60
60
60
60
60
60
60
60
ENDCHAR
STARTCHAR Idieresis
ENCODING 207
SWIDTH 294 0
DWIDTH 6 0
BBX 6 16 0 0
BITMAP
CC
CC
00
30
30
30
30
30
30
30
30
30
30
30
30
30
ENDCHAR
STARTCHAR Eth
ENCODING 208
SWIDTH 774 0
DWIDTH 14 0
BBX 13 13 0 0
BITMAP
3F80
3FE0
3070
3038
3018
FE18
FE18
3018
3018
3038
3070
3FE0
3F80
ENDCHAR
STARTCHAR Ntilde
ENCODING 209
SWIDTH 748 0
DWIDTH 14 0
BBX 10 16 2 0
BITMAP
1900
2600
0000
E0C0
E0C0
F0C0
F0C0
D8C0
D8C0
CCC0
C6C0
C6C0
C3C0
C3C0
C1C0
C1C0
ENDCHAR
STARTCHAR Ograve
ENCODING 210
SWIDTH 787 0
DWIDTH 14 0
BBX 12 16 1 0
BITMAP
0E00
0700
0000
1F80
3FC0
70E0
6060
C030
C030
C030
C030
C030
6060
70E0
3FC0
1F80
ENDCHAR
STARTCHAR Oacute
ENCODING 211
SWIDTH 787 0
DWIDTH 14 0
BBX 12 16 1 0
BITMAP
0200
0400
0000
1F80
3FC0
70E0
6060
C030
C030
C030
C030
C030
6060
70E0
3FC0
1F80
ENDCHAR
STARTCHAR Ocircumflex
ENCODING 212
SWIDTH 787 0
DWIDTH 14 0
BBX 12 16 1 0
BITMAP
0600
0900
0000
1F80
3FC0
70E0
6060
C030
C030
C030
C030
C030
6060
70E0
3FC0
1F80
ENDCHAR
STARTCHAR Otilde
ENCODING 213
SWIDTH 787 0
DWIDTH 14 0
BBX 12 16 1 0
BITMAP
0C80
1300
0000
1F80
3FC0
70E0
6060
C030
C030
C030
C030
C030
6060
70E0
3FC0
1F80
ENDCHAR
STARTCHAR Odieresis
ENCODING 214
SWIDTH 787 0
DWIDTH 14 0
BBX 12 16 1 0
BITMAP
1980
1980
0000
1F80
3FC0
70E0
6060
C030
C030
C030
C030
C030
6060
70E0
3FC0
1F80
ENDCHAR
STARTCHAR multiply
ENCODING 215
SWIDTH 837 0
DWIDTH 15 0
BBX 10 10 2 1
BITMAP
4080
E1C0
7380
3F00
1E00
1E00
3F00
7380
E1C0
4080
ENDCHAR
STARTCHAR Oslash
ENCODING 216
SWIDTH 787 0
DWIDTH 14 0
BBX 12 13 1 0
BITMAP
1F10
3FA0
70E0
E0E0
C1B0
C330
C630
CC30
D830
7070
70E0
5FC0
8F80
ENDCHAR
STARTCHAR Ugrave
ENCODING 217
SWIDTH 731 0
DWIDTH 14 0
BBX 10 16 2 0
BITMAP
1800
0C00
0000
C0C0
C0C0
C0C0
C0C0
C0C0
C0C0
C0C0
C0C0
C0C0
C0C0
6180
7F80
3F00
ENDCHAR
STARTCHAR Uacute
ENCODING 218
SWIDTH 731 0
DWIDTH 14 0
BBX 10 16 2 0
BITMAP
0C00
0800
0000
C0C0
C0C0
C0C0
C0C0
C0C0
C0C0
C0C0
C0C0
C0C0
C0C0
6180
7F80
3F00
ENDCHAR
STARTCHAR Ucircumflex
ENCODING 219
SWIDTH 731 0
DWIDTH 14 0
BBX 10 16 2 0
BITMAP
0C00
1200
0000
C0C0
C0C0
C0C0
C0C0
C0C0
C0C0
C0C0
C0C0
C0C0
C0C0
6180
7F80
3F00
ENDCHAR
STARTCHAR Udieresis
ENCODING 220
SWIDTH 731 0
DWIDTH 14 0
BBX 10 16 2 0
BITMAP
3300
3300
0000
C0C0
C0C0
C0C0
C0C0
C0C0
C0C0
C0C0
C0C0
C0C0
C0C0
6180
7F80
3F00
ENDCHAR
STARTCHAR Yacute
ENCODING 221
SWIDTH 610 0
DWIDTH 12 0
BBX 12 16 0 0
BITMAP
0600
0C00
0000
E070
6060
30C0
1980
1980
0F00
0600
0600
0600
0600
0600
0600
0600
ENDCHAR
STARTCHAR Thorn
ENCODING 222
SWIDTH 604 0
DWIDTH 11 0
BBX 8 13 2 0
BITMAP
C0
C0
FC
FE
C7
C3
C3
C7
FE
FC
C0
C0
C0
ENDCHAR
STARTCHAR germandbls
ENCODING 223
SWIDTH 629 0
DWIDTH 11 0
BBX 9 14 2 0
BITMAP
3C00
7E00
E300
C300
CE00
CC00
CC00
C600
C300
C180
C180
D180
DF80
CF00
ENDCHAR
STARTCHAR agrave
ENCODING 224
SWIDTH 612 0
DWIDTH 10 0
BBX 8 14 1 0
BITMAP
30
18
08
00
3C
7E
47
03
3F
FF
C3
C7
FF
7B
ENDCHAR
STARTCHAR aacute
ENCODING 225
SWIDTH 612 0
DWIDTH 10 0
BBX 8 14 1 0
BITMAP
04
08
10
00
3C
7E
47
03
3F
FF
C3
C7
FF
7B
ENDCHAR
STARTCHAR acircumflex
ENCODING 226
SWIDTH 612 0
DWIDTH 10 0
BBX 8 14 1 0
BITMAP
18
3C
66
00
3C
7E
47
03
3F
FF
C3
C7
FF
7B
ENDCHAR
STARTCHAR atilde
ENCODING 227
SWIDTH 612 0
DWIDTH 10 0
BBX 8 14 1 0
BITMAP
72
4E
00
00
3C
7E
47
03
3F
FF
C3
C7
FF
7B
ENDCHAR
STARTCHAR adieresis
ENCODING 228
SWIDTH 612 0
DWIDTH 10 0
BBX 8 14 1 0
BITMAP
66
66
00
00
3C
7E
47
03
3F
FF
C3
C7
FF
7B
ENDCHAR
STARTCHAR aring
ENCODING 229
SWIDTH 612 0
DWIDTH 10 0
BBX 8 16 1 0
BITMAP
1C
22
22
22
1C
00
3C
7E
47
03
3F
FF
C3
C7
FF
7B
ENDCHAR
STARTCHAR ae
ENCODING 230
SWIDTH 981 0
DWIDTH 17 0
BBX 15 10 1 0
BITMAP
3C78
7EFC
478E
0306
3FFE
FFFE
C300
C782
FDFE
787C
ENDCHAR
STARTCHAR ccedilla
ENCODING 231
SWIDTH 549 0
DWIDTH 9 0
BBX 8 13 1 -3
BITMAP
1E
7F
61
C0
C0
C0
C0
61
7F
1E
06
06
1E
ENDCHAR
STARTCHAR egrave
ENCODING 232
SWIDTH 615 0
DWIDTH 11 0
BBX 10 14 1 0
BITMAP
1000
0800
0C00
0000
1F00
7F80
61C0
C0C0
FFC0
FFC0
C000
6040
7FC0
1F80
ENDCHAR
STARTCHAR eacute
ENCODING 233
SWIDTH 615 0
DWIDTH 11 0
BBX 10 14 1 0
BITMAP
0600
0C00
0800
0000
1F00
7F80
61C0
C0C0
FFC0
FFC0
C000
6040
7FC0
1F80
ENDCHAR
STARTCHAR ecircumflex
ENCODING 234
SWIDTH 615 0
DWIDTH 11 0
BBX 10 14 1 0
BITMAP
0C00
1E00
3300
0000
1F00
7F80
61C0
C0C0
FFC0
FFC0
C000
6040
7FC0
1F80
ENDCHAR
STARTCHAR edieresis
ENCODING 235
SWIDTH 615 0
DWIDTH 11 0
BBX 10 14 1 0
BITMAP
3300
3300
0000
0000
1F00
7F80
61C0
C0C0
FFC0
FFC0
C000
6040
7FC0
1F80
ENDCHAR
STARTCHAR igrave
ENCODING 236
SWIDTH 277 0
DWIDTH 5 0
BBX 4 14 0 0
BITMAP
C0
60
30
00
30
30
30
30
30
30
30
30
30
30
ENDCHAR
STARTCHAR iacute
ENCODING 237
SWIDTH 277 0
DWIDTH 5 0
BBX 4 14 1 0
BITMAP
30
60
C0
00
60
60
60
60
60
60
60
60
60
60
ENDCHAR
STARTCHAR icircumflex
ENCODING 238
SWIDTH 277 0
DWIDTH 5 0
BBX 6 14 0 0
BITMAP
30
78
CC
00
30
30
30
30
30
30
30
30
30
30
ENDCHAR
STARTCHAR idieresis
ENCODING 239
SWIDTH 277 0
DWIDTH 5 0
BBX 6 14 0 0
BITMAP
CC
CC
00
00
30
30
30
30
30
30
30
30
30
30
ENDCHAR
STARTCHAR eth
ENCODING 240
SWIDTH 611 0
DWIDTH 11 0
BBX 10 14 1 0
BITMAP
1080
1F00
7C00
0600
1F00
7F80
61C0
C0C0
C0C0
C0C0
C0C0
6180
7F80
1E00
ENDCHAR
STARTCHAR ntilde
ENCODING 241
SWIDTH 633 0
DWIDTH 11 0
BBX 8 14 2 0
BITMAP
32
4E
00
00
DE
FE
E7
C3
C3
C3
C3
C3
C3
C3
ENDCHAR
STARTCHAR ograve
ENCODING 242
SWIDTH 611 0
DWIDTH 11 0
BBX 10 14 1 0
BITMAP
3000
1800
0C00
0000
1E00
7F80
6180
C0C0
C0C0
C0C0
C0C0
6180
7F80
1E00
ENDCHAR
STARTCHAR oacute
ENCODING 243
SWIDTH 611 0
DWIDTH 11 0
BBX 10 14 1 0
BITMAP
0600
0C00
1800
0000
1E00
7F80
6180
C0C0
C0C0
C0C0
C0C0
6180
7F80
1E00
ENDCHAR
STARTCHAR ocircumflex
ENCODING 244
SWIDTH 611 0
DWIDTH 11 0
BBX 10 14 1 0
BITMAP
0C00
1E00
3300
0000
1E00
7F80
6180
C0C0
C0C0
C0C0
C0C0
6180
7F80
1E00
ENDCHAR
STARTCHAR otilde
ENCODING 245
SWIDTH 611 0
DWIDTH 11 0
BBX 10 14 1 0
BITMAP
3900
2700
0000
0000
1E00
7F80
6180
C0C0
C0C0
C0C0
C0C0
6180
7F80
1E00
ENDCHAR
STARTCHAR odieresis
ENCODING 246
SWIDTH 611 0
DWIDTH 11 0
BBX 10 14 1 0
BITMAP
3300
3300
0000
0000
1E00
7F80
6180
C0C0
C0C0
C0C0
C0C0
6180
7F80
1E00
ENDCHAR
STARTCHAR divide
ENCODING 247
SWIDTH 837 0
DWIDTH 15 0
BBX 12 8 2 2
BITMAP
0600
0600
0000
FFF0
FFF0
0000
0600
0600
ENDCHAR
STARTCHAR oslash
ENCODING 248
SWIDTH 611 0
DWIDTH 11 0
BBX 10 12 1 -1
BITMAP
0040
1E40
7F80
6180
C2C0
C4C0
C8C0
D0C0
6180
7F80
9E00
8000
ENDCHAR
STARTCHAR ugrave
ENCODING 249
SWIDTH 633 0
DWIDTH 11 0
BBX 8 14 2 0
BITMAP
20
30
18
00
C3
C3
C3
C3
C3
C3
C3
E7
7F
7B
ENDCHAR
STARTCHAR uacute
ENCODING 250
SWIDTH 633 0
DWIDTH 11 0
BBX 8 14 2 0
BITMAP
0C
18
30
00
C3
C3
C3
C3
C3
C3
C3
E7
7F
7B
ENDCHAR
STARTCHAR ucircumflex
ENCODING 251
SWIDTH 633 0
DWIDTH 11 0
BBX 8 14 2 0
BITMAP
18
3C
66
00
C3
C3
C3
C3
C3
C3
C3
E7
7F
7B
ENDCHAR
STARTCHAR udieresis
ENCODING 252
SWIDTH 633 0
DWIDTH 11 0
BBX 8 14 2 0
BITMAP
66
66
00
00
C3
C3
C3
C3
C3
C3
C3
E7
7F
7B
ENDCHAR
STARTCHAR yacute
ENCODING 253
SWIDTH 591 0
DWIDTH 11 0
BBX 10 18 1 -4
BITMAP
0400
0800
1800
0000
C0C0
C0C0
6180
6180
3300
3300
1E00
1E00
0C00
0C00
0C00
1800
7800
7000
ENDCHAR
STARTCHAR thorn
ENCODING 254
SWIDTH 634 0
DWIDTH 11 0
BBX 9 18 2 -4
BITMAP
C000
C000
C000
C000
DE00
FF00
E380
C180
C180
C180
C180
E380
FF00
DE00
C000
C000
C000
C000
ENDCHAR
STARTCHAR ydieresis
ENCODING 255
SWIDTH 591 0
DWIDTH 11 0
BBX 10 18 1 -4
BITMAP
3600
3600
0000
0000
C0C0
C0C0
6180
6180
3300
3300
1E00
1E00
0C00
0C00
0C00
1800
7800
7000
ENDCHAR
STARTCHAR Amacron
ENCODING 256
SWIDTH 684 0
DWIDTH 12 0
BBX 12 16 0 0
BITMAP
0F00
0F00
0000
0600
0600
0F00
0F00
1980
1980
1980
30C0
3FC0
7FE0
6060
6060
C030
ENDCHAR
STARTCHAR amacron
ENCODING 257
SWIDTH 612 0
DWIDTH 10 0
BBX 8 13 1 0
BITMAP
3C
3C
00
3C
7E
47
03
3F
FF
C3
C7
FF
7B
ENDCHAR
STARTCHAR Abreve
ENCODING 258
SWIDTH 684 0
DWIDTH 12 0
BBX 12 17 0 0
BITMAP
1080
0F00
0000
0000
0600
0600
0F00
0F00
1980
1980
1980
30C0
3FC0
7FE0
6060
6060
C030
ENDCHAR
STARTCHAR abreve
ENCODING 259
SWIDTH 612 0
DWIDTH 10 0
BBX 8 14 1 0
BITMAP
42
3C
00
00
3C
7E
47
03
3F
FF
C3
C7
FF
7B
ENDCHAR
STARTCHAR Aogonek
ENCODING 260
SWIDTH 684 0
DWIDTH 12 0
BBX 13 16 0 -3
BITMAP
0600
0600
0F00
0F00
1980
1980
1980
30C0
3FC0
7FE0
6060
6060
C030
0030
0030
0038
ENDCHAR
STARTCHAR aogonek
ENCODING 261
SWIDTH 612 0
DWIDTH 10 0
BBX 9 13 1 -3
BITMAP
3C00
7E00
4700
0300
3F00
FF00
C300
C700
FF00
7B00
0300
0300
0380
ENDCHAR
STARTCHAR Cacute
ENCODING 262
SWIDTH 698 0
DWIDTH 13 0
BBX 11 16 1 0
BITMAP
0200
0400
0000
0FC0
3FE0
7020
6000
C000
C000
C000
C000
C000
6000
7020
3FE0
0FC0
ENDCHAR
STARTCHAR cacute
ENCODING 263
SWIDTH 549 0
DWIDTH 9 0
BBX 8 14 1 0
BITMAP
06
0C
08
00
1E
7F
61
C0
C0
C0
C0
61
7F
1E
ENDCHAR
STARTCHAR Ccircumflex
ENCODING 264
SWIDTH 698 0
DWIDTH 13 0
BBX 11 16 1 0
BITMAP
0700
0D80
0000
0FC0
3FE0
7020
6000
C000
C000
C000
C000
C000
6000
7020
3FE0
0FC0
ENDCHAR
STARTCHAR ccircumflex
ENCODING 265
SWIDTH 549 0
DWIDTH 9 0
BBX 8 14 1 0
BITMAP
0E
0A
11
00
1E
7F
61
C0
C0
C0
C0
61
7F
1E
ENDCHAR
STARTCHAR Cdotaccent
ENCODING 266
SWIDTH 698 0
DWIDTH 13 0
BBX 11 16 1 0
BITMAP
0300
0300
0000
0FC0
3FE0
7020
6000
C000
C000
C000
C000
C000
6000
7020
3FE0
0FC0
ENDCHAR
STARTCHAR cdotaccent
ENCODING 267
SWIDTH 549 0
DWIDTH 9 0
BBX 8 14 1 0
BITMAP
0C
0C
00
00
1E
7F
61
C0
C0
C0
C0
61
7F
1E
ENDCHAR
STARTCHAR Ccaron
ENCODING 268
SWIDTH 698 0
DWIDTH 13 0
BBX 11 16 1 0
BITMAP
0900
0600
0000
0FC0
3FE0
7020
6000
C000
C000
C000
C000
C000
6000
7020
3FE0
0FC0
ENDCHAR
STARTCHAR ccaron
ENCODING 269
SWIDTH 549 0
DWIDTH 9 0
BBX 8 14 1 0
BITMAP
13
1A
0C
00
1E
7F
61
C0
C0
C0
C0
61
7F
1E
ENDCHAR
STARTCHAR Dcaron
ENCODING 270
SWIDTH 770 0
DWIDTH 14 0
BBX 11 16 2 0
BITMAP
1600
1C00
0000
FE00
FF80
C1C0
C0E0
C060
C060
C060
C060
C060
C0E0
C1C0
FF80
FE00
ENDCHAR
STARTCHAR dcaron
ENCODING 271
SWIDTH 634 0
DWIDTH 11 0
BBX 12 14 1 0
BITMAP
0180
01B0
01B0
01A0
3D80
7F80
E380
C180
C180
C180
C180
E380
7F80
3D80
ENDCHAR
STARTCHAR Dcroat
ENCODING 272
SWIDTH 774 0
DWIDTH 14 0
BBX 13 13 0 0
BITMAP
3F80
3FE0
3070
3038
3018
FE18
FE18
3018
3018
3038
3070
3FE0
3F80
ENDCHAR
STARTCHAR dcroat
ENCODING 273
SWIDTH 634 0
DWIDTH 11 0
BBX 10 14 1 0
BITMAP
0180
0180
0FC0
0180
3D80
7F80
E380
C180
C180
C180
C180
E380
7F80
3D80
ENDCHAR
STARTCHAR Emacron
ENCODING 274
SWIDTH 631 0
DWIDTH 11 0
BBX 8 16 2 0
BITMAP
7C
7C
00
FF
FF
C0
C0
C0
FF
FF
C0
C0
C0
C0
FF
FF
ENDCHAR
STARTCHAR emacron
ENCODING 275
SWIDTH 615 0
DWIDTH 11 0
BBX 10 13 1 0
BITMAP
3E00
3E00
0000
1F00
7F80
61C0
C0C0
FFC0
FFC0
C000
6040
7FC0
1F80
ENDCHAR
STARTCHAR Ebreve
ENCODING 276
SWIDTH 631 0
DWIDTH 11 0
BBX 8 16 2 0
BITMAP
22
3E
00
FF
FF
C0
C0
C0
FF
FF
C0
C0
C0
C0
FF
FF
ENDCHAR
STARTCHAR ebreve
ENCODING 277
SWIDTH 615 0
DWIDTH 11 0
BBX 10 14 1 0
BITMAP
3100
1E00
0000
0000
1F00
7F80
61C0
C0C0
FFC0
FFC0
C000
6040
7FC0
1F80
ENDCHAR
STARTCHAR Edotaccent
ENCODING 278
SWIDTH 631 0
DWIDTH 11 0
BBX 8 16 2 0
BITMAP
18
18
00
FF
FF
C0
C0
C0
FF
FF
C0
C0
C0
C0
FF
FF
ENDCHAR
STARTCHAR edotaccent
ENCODING 279
SWIDTH 615 0
DWIDTH 11 0
BBX 10 14 1 0
BITMAP
0C00
0C00
0000
0000
1F00
7F80
61C0
C0C0
FFC0
FFC0
C000
6040
7FC0
1F80
ENDCHAR
STARTCHAR Eogonek
ENCODING 280
SWIDTH 631 0
DWIDTH 11 0
BBX 8 16 2 -3
BITMAP
FF
FF
C0
C0
C0
FF
FF
C0
C0
C0
C0
FF
FF
02
06
07
ENDCHAR
STARTCHAR eogonek
ENCODING 281
SWIDTH 615 0
DWIDTH 11 0
BBX 10 13 1 -3
BITMAP
1F00
7F80
61C0
C0C0
FFC0
FFC0
C000
6040
7FC0
1F80
0200
0600
0300
ENDCHAR
STARTCHAR Ecaron
ENCODING 282
SWIDTH 631 0
DWIDTH 11 0
BBX 8 16 2 0
BITMAP
24
18
00
FF
FF
C0
C0
C0
FF
FF
C0
C0
C0
C0
FF
FF
ENDCHAR
STARTCHAR ecaron
ENCODING 283
SWIDTH 615 0
DWIDTH 11 0
BBX 10 14 1 0
BITMAP
3300
1E00
0C00
0000
1F00
7F80
61C0
C0C0
FFC0
FFC0
C000
6040
7FC0
1F80
ENDCHAR
STARTCHAR Gcircumflex
ENCODING 284
SWIDTH 774 0
DWIDTH 14 0
BBX 11 16 1 0
BITMAP
0700
0D80
0000
0FC0
3FE0
7020
6000
C000
C3E0
C3E0
C060
C060
6060
7060
3FC0
1F80
ENDCHAR
STARTCHAR gcircumflex
ENCODING 285
SWIDTH 634 0
DWIDTH 11 0
BBX 9 18 1 -4
BITMAP
1C00
1400
2200
0000
3D80
7F80
E380
C180
C180
C180
C180
E380
7F80
3D80
0180
4300
7F00
3E00
ENDCHAR
STARTCHAR Gbreve
ENCODING 286
SWIDTH 774 0
DWIDTH 14 0
BBX 11 16 1 0
BITMAP
0880
0F80
0000
0FC0
3FE0
7020
6000
C000
C3E0
C3E0
C060
C060
6060
7060
3FC0
1F80
ENDCHAR
STARTCHAR gbreve
ENCODING 287
SWIDTH 634 0
DWIDTH 11 0
BBX 9 18 1 -4
BITMAP
2100
1E00
0000
0000
3D80
7F80
E380
C180
C180
C180
C180
E380
7F80
3D80
0180
4300
7F00
3E00
ENDCHAR
STARTCHAR Gdotaccent
ENCODING 288
SWIDTH 774 0
DWIDTH 14 0
BBX 11 16 1 0
BITMAP
0300
0300
0000
0FC0
3FE0
7020
6000
C000
C3E0
C3E0
C060
C060
6060
7060
3FC0
1F80
ENDCHAR
STARTCHAR gdotaccent
ENCODING 289
SWIDTH 634 0
DWIDTH 11 0
BBX 9 18 1 -4
BITMAP
0C00
0C00
0000
0000
3D80
7F80
E380
C180
C180
C180
C180
E380
7F80
3D80
0180
4300
7F00
3E00
ENDCHAR
STARTCHAR Gcommaaccent
ENCODING 290
SWIDTH 774 0
DWIDTH 14 0
BBX 11 18 1 -5
BITMAP
0FC0
3FE0
7020
6000
C000
C3E0
C3E0
C060
C060
6060
7060
3FC0
1F80
0000
0000
0300
0200
0600
ENDCHAR
STARTCHAR gcommaaccent
ENCODING 291
SWIDTH 634 0
DWIDTH 11 0
BBX 9 18 1 -4
BITMAP
0400
0C00
0800
0000
3D80
7F80
E380
C180
C180
C180
C180
E380
7F80
3D80
0180
4300
7F00
3E00
ENDCHAR
STARTCHAR Hcircumflex
ENCODING 292
SWIDTH 751 0
DWIDTH 14 0
BBX 10 16 2 0
BITMAP
0C00
1200
0000
C0C0
C0C0
C0C0
C0C0
C0C0
FFC0
FFC0
C0C0
C0C0
C0C0
C0C0
C0C0
C0C0
ENDCHAR
STARTCHAR hcircumflex
ENCODING 293
SWIDTH 633 0
DWIDTH 11 0
BBX 9 16 1 0
BITMAP
6000
9000
0000
6000
6000
6000
6F00
7F00
7380
6180
6180
6180
6180
6180
6180
6180
ENDCHAR
STARTCHAR Hbar
ENCODING 294
SWIDTH 916 0
DWIDTH 16 0
BBX 12 13 2 0
BITMAP
6060
FFF0
FFF0
6060
6060
7FE0
7FE0
6060
6060
6060
6060
6060
6060
ENDCHAR
STARTCHAR hbar
ENCODING 295
SWIDTH 694 0
DWIDTH 13 0
BBX 9 14 1 0
BITMAP
6000
FC00
FC00
6000
6F00
7F00
7380
6180
6180
6180
6180
6180
6180
6180
ENDCHAR
STARTCHAR Itilde
ENCODING 296
SWIDTH 294 0
DWIDTH 6 0
BBX 6 16 0 0
BITMAP
64
98
00
30
30
30
30
30
30
30
30
30
30
30
30
30
ENDCHAR
STARTCHAR itilde
ENCODING 297
SWIDTH 277 0
DWIDTH 5 0
BBX 6 14 0 0
BITMAP
E4
9C
00
00
30
30
30
30
30
30
30
30
30
30
ENDCHAR
STARTCHAR Imacron
ENCODING 298
SWIDTH 294 0
DWIDTH 6 0
BBX 6 16 0 0
BITMAP
FC
FC
00
30
30
30
30
30
30
30
30
30
30
30
30
30
ENDCHAR
STARTCHAR imacron
ENCODING 299
SWIDTH 277 0
DWIDTH 5 0
BBX 6 13 0 0
BITMAP
FC
FC
00
30
30
30
30
30
30
30
30
30
30
ENDCHAR
STARTCHAR Ibreve
ENCODING 300
SWIDTH 294 0
DWIDTH 6 0
BBX 6 16 0 0
BITMAP
84
78
00
30
30
30
30
30
30
30
30
30
30
30
30
30
ENDCHAR
STARTCHAR ibreve
ENCODING 301
SWIDTH 277 0
DWIDTH 5 0
BBX 6 14 0 0
BITMAP
84
78
00
00
30
30
30
30
30
30
30
30
30
30
ENDCHAR
STARTCHAR Iogonek
ENCODING 302
SWIDTH 294 0
DWIDTH 6 0
BBX 3 16 2 -3
BITMAP
C0
C0
C0
C0
C0
C0
C0
C0
C0
C0
C0
C0
C0
C0
C0
E0
ENDCHAR
STARTCHAR iogonek
ENCODING 303
SWIDTH 277 0
DWIDTH 5 0
BBX 3 17 1 -3
BITMAP
60
60
00
00
60
60
60
60
60
60
60
60
60
60
40
C0
60
ENDCHAR
STARTCHAR Idotaccent
ENCODING 304
SWIDTH 294 0
DWIDTH 6 0
BBX 2 16 2 0
BITMAP
C0
C0
00
C0
C0
C0
C0
C0
C0
C0
C0
C0
C0
C0
C0
C0
ENDCHAR
STARTCHAR dotlessi
ENCODING 305
SWIDTH 277 0
DWIDTH 5 0
BBX 2 10 2 0
BITMAP
C0
C0
C0
C0
C0
C0
C0
C0
C0
C0
ENDCHAR
STARTCHAR IJ
ENCODING 306
SWIDTH 589 0
DWIDTH 11 0
BBX 7 17 2 -4
BITMAP
C6
C6
C6
C6
C6
C6
C6
C6
C6
C6
C6
C6
C6
06
06
3E
38
ENDCHAR
STARTCHAR ij
ENCODING 307
SWIDTH 555 0
DWIDTH 11 0
BBX 7 18 2 -4
BITMAP
C6
C6
00
00
C6
C6
C6
C6
C6
C6
C6
C6
C6
C6
06
06
1E
1C
ENDCHAR
STARTCHAR Jcircumflex
ENCODING 308
SWIDTH 294 0
DWIDTH 6 0
BBX 6 20 -1 -4
BITMAP
18
24
00
18
18
18
18
18
18
18
18
18
18
18
18
18
18
38
F0
E0
ENDCHAR
STARTCHAR jcircumflex
ENCODING 309
SWIDTH 277 0
DWIDTH 5 0
BBX 6 18 0 -4
BITMAP
30
78
CC
00
30
30
30
30
30
30
30
30
30
30
30
30
F0
E0
ENDCHAR
STARTCHAR Kcommaaccent
ENCODING 310
SWIDTH 655 0
DWIDTH 12 0
BBX 10 18 2 -5
BITMAP
C180
C300
C600
CC00
D800
F000
F000
D800
CC00
C600
C300
C180
C0C0
0000
0000
0C00
0C00
0800
ENDCHAR
STARTCHAR kcommaaccent
ENCODING 311
SWIDTH 579 0
DWIDTH 10 0
BBX 8 19 2 -5
BITMAP
C0
C0
C0
C0
C3
C6
CC
D8
F0
F0
D8
CC
C6
C3
00
00
18
18
10
ENDCHAR
STARTCHAR kgreenlandic
ENCODING 312
SWIDTH 579 0
DWIDTH 10 0
BBX 8 10 2 0
BITMAP
C3
C6
CC
D8
F0
F0
D8
CC
C6
C3
ENDCHAR
STARTCHAR Lacute
ENCODING 313
SWIDTH 557 0
DWIDTH 10 0
BBX 8 16 2 0
BITMAP
60
C0
00
C0
C0
C0
C0
C0
C0
C0
C0
C0
C0
C0
FF
FF
ENDCHAR
STARTCHAR lacute
ENCODING 314
SWIDTH 277 0
DWIDTH 5 0
BBX 3 17 2 0
BITMAP
60
C0
00
C0
C0
C0
C0
C0
C0
C0
C0
C0
C0
C0
C0
C0
C0
ENDCHAR
STARTCHAR Lcommaaccent
ENCODING 315
SWIDTH 557 0
DWIDTH 10 0
BBX 8 18 2 -5
BITMAP
C0
C0
C0
C0
C0
C0
C0
C0
C0
C0
C0
FF
FF
00
00
18
10
10
ENDCHAR
STARTCHAR lcommaaccent
ENCODING 316
SWIDTH 277 0
DWIDTH 5 0
BBX 3 19 1 -5
BITMAP
60
60
60
60
60
60
60
60
60
60
60
60
60
60
00
00
60
40
C0
ENDCHAR
STARTCHAR Lcaron
ENCODING 317
SWIDTH 557 0
DWIDTH 10 0
BBX 8 13 2 0
BITMAP
C0
C8
C8
D8
C0
C0
C0
C0
C0
C0
C0
FF
FF
ENDCHAR
STARTCHAR lcaron
ENCODING 318
SWIDTH 375 0
DWIDTH 7 0
BBX 5 14 2 0
BITMAP
C0
D8
D0
F0
C0
C0
C0
C0
C0
C0
C0
C0
C0
C0
ENDCHAR
STARTCHAR Ldot
ENCODING 319
SWIDTH 557 0
DWIDTH 10 0
BBX 8 13 2 0
BITMAP
C0
C0
C0
C0
C0
C6
C6
C0
C0
C0
C0
FF
FF
ENDCHAR
STARTCHAR ldot
ENCODING 320
SWIDTH 341 0
DWIDTH 6 0
BBX 5 14 2 0
BITMAP
C0
C0
C0
C0
C0
C0
D8
D8
C0
C0
C0
C0
C0
C0
ENDCHAR
STARTCHAR Lslash
ENCODING 321
SWIDTH 562 0
DWIDTH 10 0
BBX 10 13 0 0
BITMAP
3000
3000
3000
3200
3600
3800
3000
F000
3000
3000
3000
3FC0
3FC0
ENDCHAR
STARTCHAR lslash
ENCODING 322
SWIDTH 284 0
DWIDTH 5 0
BBX 6 14 0 0
BITMAP
30
30
30
30
30
3C
38
70
B0
30
30
30
30
30
ENDCHAR
STARTCHAR Nacute
ENCODING 323
SWIDTH 748 0
DWIDTH 14 0
BBX 10 16 2 0
BITMAP
0C00
1800
0000
E0C0
E0C0
F0C0
F0C0
D8C0
D8C0
CCC0
C6C0
C6C0
C3C0
C3C0
C1C0
C1C0
ENDCHAR
STARTCHAR nacute
ENCODING 324
SWIDTH 633 0
DWIDTH 11 0
BBX 8 14 2 0
BITMAP
08
10
20
00
DE
FE
E7
C3
C3
C3
C3
C3
C3
C3
ENDCHAR
STARTCHAR Ncommaaccent
ENCODING 325
SWIDTH 748 0
DWIDTH 14 0
BBX 10 18 2 -5
BITMAP
E0C0
E0C0
F0C0
F0C0
D8C0
D8C0
CCC0
C6C0
C6C0
C3C0
C3C0
C1C0
C1C0
0000
0000
0C00
0800
0800
ENDCHAR
STARTCHAR ncommaaccent
ENCODING 326
SWIDTH 633 0
DWIDTH 11 0
BBX 8 15 2 -5
BITMAP
DE
FE
E7
C3
C3
C3
C3
C3
C3
C3
00
00
18
10
10
ENDCHAR
STARTCHAR Ncaron
ENCODING 327
SWIDTH 748 0
DWIDTH 14 0
BBX 10 16 2 0
BITMAP
1200
0C00
0000
E0C0
E0C0
F0C0
F0C0
D8C0
D8C0
CCC0
C6C0
C6C0
C3C0
C3C0
C1C0
C1C0
ENDCHAR
STARTCHAR ncaron
ENCODING 328
SWIDTH 633 0
DWIDTH 11 0
BBX 8 14 2 0
BITMAP
66
3C
18
00
DE
FE
E7
C3
C3
C3
C3
C3
C3
C3
ENDCHAR
STARTCHAR napostrophe
ENCODING 329
SWIDTH 813 0
DWIDTH 15 0
BBX 12 13 1 0
BITMAP
6000
6000
4000
CDE0
0FE0
0E70
0C30
0C30
0C30
0C30
0C30
0C30
0C30
ENDCHAR
STARTCHAR Eng
ENCODING 330
SWIDTH 748 0
DWIDTH 13 0
BBX 10 17 2 -4
BITMAP
DF00
FF80
F1C0
E0C0
C0C0
C0C0
C0C0
C0C0
C0C0
C0C0
C0C0
C0C0
C0C0
00C0
00C0
03C0
0380
ENDCHAR
STARTCHAR eng
ENCODING 331
SWIDTH 633 0
DWIDTH 11 0
BBX 8 14 2 -4
BITMAP
DE
FE
E7
C3
C3
C3
C3
C3
C3
C3
03
03
1F
1E
ENDCHAR
STARTCHAR Omacron
ENCODING 332
SWIDTH 787 0
DWIDTH 14 0
BBX 12 16 1 0
BITMAP
0F00
0F00
0000
1F80
3FC0
70E0
6060
C030
C030
C030
C030
C030
6060
70E0
3FC0
1F80
ENDCHAR
STARTCHAR omacron
ENCODING 333
SWIDTH 611 0
DWIDTH 11 0
BBX 10 13 1 0
BITMAP
1E00
1E00
0000
1E00
7F80
6180
C0C0
C0C0
C0C0
C0C0
6180
7F80
1E00
ENDCHAR
STARTCHAR Obreve
ENCODING 334
SWIDTH 787 0
DWIDTH 14 0
BBX 12 16 1 0
BITMAP
1080
0F00
0000
1F80
3FC0
70E0
6060
C030
C030
C030
C030
C030
6060
70E0
3FC0
1F80
ENDCHAR
STARTCHAR obreve
ENCODING 335
SWIDTH 611 0
DWIDTH 11 0
BBX 10 14 1 0
BITMAP
2100
1E00
0000
0000
1E00
7F80
6180
C0C0
C0C0
C0C0
C0C0
6180
7F80
1E00
ENDCHAR
STARTCHAR Ohungarumlaut
ENCODING 336
SWIDTH 787 0
DWIDTH 14 0
BBX 12 16 1 0
BITMAP
0480
0900
0000
1F80
3FC0
70E0
6060
C030
C030
C030
C030
C030
6060
70E0
3FC0
1F80
ENDCHAR
STARTCHAR ohungarumlaut
ENCODING 337
SWIDTH 611 0
DWIDTH 11 0
BBX 10 14 1 0
BITMAP
0900
1200
1200
0000
1E00
7F80
6180
C0C0
C0C0
C0C0
C0C0
6180
7F80
1E00
ENDCHAR
STARTCHAR OE
ENCODING 338
SWIDTH 1069 0
DWIDTH 19 0
BBX 17 13 1 0
BITMAP
0FFF80
3FFF80
786000
606000
C06000
C07F80
C07F80
C06000
C06000
606000
786000
3FFF80
0FFF80
ENDCHAR
STARTCHAR oe
ENCODING 339
SWIDTH 1022 0
DWIDTH 19 0
BBX 18 10 1 0
BITMAP
3E1F00
7FFF80
E1E1C0
C0C0C0
C0FFC0
C0FFC0
C0C000
E1E040
7FFFC0
3E1F80
ENDCHAR
STARTCHAR Racute
ENCODING 340
SWIDTH 694 0
DWIDTH 13 0
BBX 10 16 2 0
BITMAP
0800
1000
0000
FC00
FE00
C700
C300
C300
C700
FE00
FC00
C600
C300
C300
C180
C1C0
ENDCHAR
STARTCHAR racute
ENCODING 341
SWIDTH 411 0
DWIDTH 8 0
BBX 6 14 2 0
BITMAP
08
10
20
00
DC
FC
E0
C0
C0
C0
C0
C0
C0
C0
ENDCHAR
STARTCHAR Rcommaaccent
ENCODING 342
SWIDTH 694 0
DWIDTH 13 0
BBX 10 18 2 -5
BITMAP
FC00
FE00
C700
C300
C300
C700
FE00
FC00
C600
C300
C300
C180
C1C0
0000
0000
0C00
0800
0800
ENDCHAR
STARTCHAR rcommaaccent
ENCODING 343
SWIDTH 411 0
DWIDTH 8 0
BBX 7 15 1 -5
BITMAP
6E
7E
70
60
60
60
60
60
60
60
00
00
40
40
C0
ENDCHAR
STARTCHAR Rcaron
ENCODING 344
SWIDTH 694 0
DWIDTH 13 0
BBX 10 16 2 0
BITMAP
2C00
3800
0000
FC00
FE00
C700
C300
C300
C700
FE00
FC00
C600
C300
C300
C180
C1C0
ENDCHAR
STARTCHAR rcaron
ENCODING 345
SWIDTH 411 0
DWIDTH 8 0
BBX 6 14 2 0
BITMAP
CC
78
30
00
DC
FC
E0
C0
C0
C0
C0
C0
C0
C0
ENDCHAR
STARTCHAR Sacute
ENCODING 346
SWIDTH 634 0
DWIDTH 11 0
BBX 9 16 1 0
BITMAP
0400
0800
0000
3E00
7F00
E100
C000
C000
7C00
3F00
0380
0180
0180
8380
FF00
7E00
ENDCHAR
STARTCHAR sacute
ENCODING 347
SWIDTH 520 0
DWIDTH 8 0
BBX 7 14 1 0
BITMAP
04
08
10
00
7C
FE
C2
E0
7C
1E
06
86
FE
7C
ENDCHAR
STARTCHAR Scircumflex
ENCODING 348
SWIDTH 634 0
DWIDTH 11 0
BBX 9 16 1 0
BITMAP
1C00
3600
0000
3E00
7F00
E100
C000
C000
7C00
3F00
0380
0180
0180
8380
FF00
7E00
ENDCHAR
STARTCHAR scircumflex
ENCODING 349
SWIDTH 520 0
DWIDTH 8 0
BBX 7 14 1 0
BITMAP
38
28
44
00
7C
FE
C2
E0
7C
1E
06
86
FE
7C
ENDCHAR
STARTCHAR Scedilla
ENCODING 350
SWIDTH 634 0
DWIDTH 11 0
BBX 9 16 1 -3
BITMAP
3E00
7F00
E100
C000
C000
7C00
3F00
0380
0180
0180
8380
FF00
7E00
0600
0600
1E00
ENDCHAR
STARTCHAR scedilla
ENCODING 351
SWIDTH 520 0
DWIDTH 8 0
BBX 7 13 1 -3
BITMAP
7C
FE
C2
E0
7C
1E
06
86
FE
7C
0C
0C
3C
ENDCHAR
STARTCHAR Scaron
ENCODING 352
SWIDTH 634 0
DWIDTH 11 0
BBX 9 16 1 0
BITMAP
3600
1C00
0000
3E00
7F00
E100
C000
C000
7C00
3F00
0380
0180
0180
8380
FF00
7E00
ENDCHAR
STARTCHAR scaron
ENCODING 353
SWIDTH 520 0
DWIDTH 8 0
BBX 7 14 1 0
BITMAP
44
28
38
00
7C
FE
C2
E0
7C
1E
06
86
FE
7C
ENDCHAR
STARTCHAR Tcommaaccent
ENCODING 354
SWIDTH 610 0
DWIDTH 12 0
BBX 12 16 0 -3
BITMAP
FFF0
FFF0
0600
0600
0600
0600
0600
0600
0600
0600
0600
0600
0600
0200
0300
0E00
ENDCHAR
STARTCHAR tcommaaccent
ENCODING 355
SWIDTH 392 0
DWIDTH 7 0
BBX 6 16 1 -3
BITMAP
60
60
60
FC
FC
60
60
60
60
60
60
7C
3C
08
0C
38
ENDCHAR
STARTCHAR Tcaron
ENCODING 356
SWIDTH 610 0
DWIDTH 12 0
BBX 12 16 0 0
BITMAP
0900
0600
0000
FFF0
FFF0
0600
0600
0600
0600
0600
0600
0600
0600
0600
0600
0600
ENDCHAR
STARTCHAR tcaron
ENCODING 357
SWIDTH 392 0
DWIDTH 7 0
BBX 6 14 1 0
BITMAP
0C
68
78
60
FC
FC
60
60
60
60
60
60
7C
3C
ENDCHAR
STARTCHAR Tbar
ENCODING 358
SWIDTH 610 0
DWIDTH 12 0
BBX 12 13 0 0
BITMAP
FFF0
FFF0
0600
0600
0600
0600
1F80
1F80
0600
0600
0600
0600
0600
ENDCHAR
STARTCHAR tbar
ENCODING 359
SWIDTH 392 0
DWIDTH 7 0
BBX 6 13 1 0
BITMAP
60
60
60
FC
FC
60
60
FC
FC
60
60
7C
3C
ENDCHAR
STARTCHAR Utilde
ENCODING 360
SWIDTH 731 0
DWIDTH 14 0
BBX 10 16 2 0
BITMAP
1900
2600
0000
C0C0
C0C0
C0C0
C0C0
C0C0
C0C0
C0C0
C0C0
C0C0
C0C0
6180
7F80
3F00
ENDCHAR
STARTCHAR utilde
ENCODING 361
SWIDTH 633 0
DWIDTH 11 0
BBX 8 14 2 0
BITMAP
72
4E
00
00
C3
C3
C3
C3
C3
C3
C3
E7
7F
7B
ENDCHAR
STARTCHAR Umacron
ENCODING 362
SWIDTH 731 0
DWIDTH 14 0
BBX 10 16 2 0
BITMAP
1E00
1E00
0000
C0C0
C0C0
C0C0
C0C0
C0C0
C0C0
C0C0
C0C0
C0C0
C0C0
6180
7F80
3F00
ENDCHAR
STARTCHAR umacron
ENCODING 363
SWIDTH 633 0
DWIDTH 11 0
BBX 8 13 2 0
BITMAP
7E
7E
00
C3
C3
C3
C3
C3
C3
C3
E7
7F
7B
ENDCHAR
STARTCHAR Ubreve
ENCODING 364
SWIDTH 731 0
DWIDTH 14 0
BBX 10 16 2 0
BITMAP
2100
1E00
0000
C0C0
C0C0
C0C0
C0C0
C0C0
C0C0
C0C0
C0C0
C0C0
C0C0
6180
7F80
3F00
ENDCHAR
STARTCHAR ubreve
ENCODING 365
SWIDTH 633 0
DWIDTH 11 0
BBX 8 14 2 0
BITMAP
42
3C
00
00
C3
C3
C3
C3
C3
C3
C3
E7
7F
7B
ENDCHAR
STARTCHAR Uring
ENCODING 366
SWIDTH 731 0
DWIDTH 14 0
BBX 10 17 2 0
BITMAP
1C00
2200
2200
2200
DCC0
C0C0
C0C0
C0C0
C0C0
C0C0
C0C0
C0C0
C0C0
C0C0
6180
7F80
3F00
ENDCHAR
STARTCHAR uring
ENCODING 367
SWIDTH 633 0
DWIDTH 11 0
BBX 8 15 2 0
BITMAP
38
44
44
44
38
C3
C3
C3
C3
C3
C3
C3
E7
7F
7B
ENDCHAR
STARTCHAR Uhungarumlaut
ENCODING 368
SWIDTH 731 0
DWIDTH 14 0
BBX 10 16 2 0
BITMAP
1B00
1200
0000
C0C0
C0C0
C0C0
C0C0
C0C0
C0C0
C0C0
C0C0
C0C0
C0C0
6180
7F80
3F00
ENDCHAR
STARTCHAR uhungarumlaut
ENCODING 369
SWIDTH 633 0
DWIDTH 11 0
BBX 8 14 2 0
BITMAP
12
36
24
00
C3
C3
C3
C3
C3
C3
C3
E7
7F
7B
ENDCHAR
STARTCHAR Uogonek
ENCODING 370
SWIDTH 731 0
DWIDTH 14 0
BBX 10 16 2 -3
BITMAP
C0C0
C0C0
C0C0
C0C0
C0C0
C0C0
C0C0
C0C0
C0C0
C0C0
6180
7F80
3F00
0800
1800
1C00
ENDCHAR
STARTCHAR uogonek
ENCODING 371
SWIDTH 633 0
DWIDTH 11 0
BBX 9 13 2 -3
BITMAP
C300
C300
C300
C300
C300
C300
C300
E700
7F00
7B00
0300
0300
0380
ENDCHAR
STARTCHAR Wcircumflex
ENCODING 372
SWIDTH 988 0
DWIDTH 19 0
BBX 17 16 1 0
BITMAP
01C000
036000
000000
C1C180
C1C180
636300
636300
636300
636300
363600
363600
363600
363600
1C1C00
1C1C00
1C1C00
ENDCHAR
STARTCHAR wcircumflex
ENCODING 373
SWIDTH 817 0
DWIDTH 16 0
BBX 13 14 2 0
BITMAP
0600
0F00
1980
0000
C718
C718
C518
6DB0
6DB0
6DB0
68B0
38E0
38E0
38E0
ENDCHAR
STARTCHAR Ycircumflex
ENCODING 374
SWIDTH 610 0
DWIDTH 12 0
BBX 12 16 0 0
BITMAP
0600
0900
0000
E070
6060
30C0
1980
1980
0F00
0600
0600
0600
0600
0600
0600
0600
ENDCHAR
STARTCHAR ycircumflex
ENCODING 375
SWIDTH 591 0
DWIDTH 11 0
BBX 10 18 1 -4
BITMAP
0800
1400
2200
0000
C0C0
C0C0
6180
6180
3300
3300
1E00
1E00
0C00
0C00
0C00
1800
7800
7000
ENDCHAR
STARTCHAR Ydieresis
ENCODING 376
SWIDTH 610 0
DWIDTH 12 0
BBX 12 16 0 0
BITMAP
1980
1980
0000
E070
6060
30C0
1980
1980
0F00
0600
0600
0600
0600
0600
0600
0600
ENDCHAR
STARTCHAR Zacute
ENCODING 377
SWIDTH 685 0
DWIDTH 13 0
BBX 11 16 1 0
BITMAP
0400
0800
0000
FFE0
FFE0
01C0
0380
0300
0700
0E00
1C00
1800
3000
7000
FFE0
FFE0
ENDCHAR
STARTCHAR zacute
ENCODING 378
SWIDTH 524 0
DWIDTH 9 0
BBX 8 14 1 0
BITMAP
04
08
10
00
FF
FF
06
0C
1C
38
30
70
FF
FF
ENDCHAR
STARTCHAR Zdotaccent
ENCODING 379
SWIDTH 685 0
DWIDTH 13 0
BBX 11 16 1 0
BITMAP
0600
0600
0000
FFE0
FFE0
01C0
0380
0300
0700
0E00
1C00
1800
3000
7000
FFE0
FFE0
ENDCHAR
STARTCHAR zdotaccent
ENCODING 380
SWIDTH 524 0
DWIDTH 9 0
BBX 8 14 1 0
BITMAP
18
18
00
00
FF
FF
06
0C
1C
38
30
70
FF
FF
ENDCHAR
STARTCHAR Zcaron
ENCODING 381
SWIDTH 685 0
DWIDTH 13 0
BBX 11 16 1 0
BITMAP
1200
0C00
0000
FFE0
FFE0
01C0
0380
0300
0700
0E00
1C00
1800
3000
7000
FFE0
FFE0
ENDCHAR
STARTCHAR zcaron
ENCODING 382
SWIDTH 524 0
DWIDTH 9 0
BBX 8 14 1 0
BITMAP
66
3C
18
00
FF
FF
06
0C
1C
38
30
70
FF
FF
ENDCHAR
STARTCHAR longs
ENCODING 383
SWIDTH 352 0
DWIDTH 6 0
BBX 7 14 0 0
BITMAP
1E
3E
30
30
F0
F0
30
30
30
30
30
30
30
30
ENDCHAR
STARTCHAR uni0180
ENCODING 384
SWIDTH 634 0
DWIDTH 12 0
BBX 10 14 1 0
BITMAP
F800
F800
6000
6000
6F00
7F80
71C0
60C0
60C0
60C0
60C0
71C0
7F80
6F00
ENDCHAR
STARTCHAR uni0181
ENCODING 385
SWIDTH 734 0
DWIDTH 13 0
BBX 13 13 -2 0
BITMAP
3FE0
6FF0
CC30
CC30
0C30
0FE0
0FE0
0C30
0C18
0C18
0C38
0FF0
0FE0
ENDCHAR
STARTCHAR uni0182
ENCODING 386
SWIDTH 686 0
DWIDTH 12 0
BBX 9 13 2 0
BITMAP
FF00
FF00
C000
C000
C000
FE00
FF00
C380
C180
C180
C380
FF00
FE00
ENDCHAR
STARTCHAR uni0183
ENCODING 387
SWIDTH 634 0
DWIDTH 12 0
BBX 9 14 2 0
BITMAP
FF00
FF00
C000
C000
DE00
FF00
E380
C180
C180
C180
C180
E380
FF00
DE00
ENDCHAR
STARTCHAR uni0184
ENCODING 388
SWIDTH 686 0
DWIDTH 12 0
BBX 11 13 0 0
BITMAP
3000
7000
F000
3000
3000
3F80
3FC0
30E0
3060
3060
30E0
3FC0
3F80
ENDCHAR
STARTCHAR uni0185
ENCODING 389
SWIDTH 634 0
DWIDTH 12 0
BBX 11 14 0 0
BITMAP
1000
3000
7000
F000
3780
3FC0
38E0
3060
3060
3060
3060
38E0
3FC0
3780
ENDCHAR
STARTCHAR uni0186
ENCODING 390
SWIDTH 703 0
DWIDTH 13 0
BBX 11 13 1 0
BITMAP
7E00
FF80
81C0
00C0
0060
0060
0060
0060
0060
00C0
81C0
FF80
7E00
ENDCHAR
STARTCHAR uni0187
ENCODING 391
SWIDTH 698 0
DWIDTH 13 0
BBX 13 17 1 0
BITMAP
0018
0038
0060
0060
0FE0
3FE0
7020
6000
C000
C000
C000
C000
C000
6000
7020
3FE0
0FC0
ENDCHAR
STARTCHAR uni0188
ENCODING 392
SWIDTH 549 0
DWIDTH 9 0
BBX 10 14 1 0
BITMAP
01C0
03C0
0300
0300
3F00
7F00
E100
C000
C000
C000
C000
6100
7F00
1E00
ENDCHAR
STARTCHAR uni0189
ENCODING 393
SWIDTH 774 0
DWIDTH 14 0
BBX 13 13 0 0
BITMAP
3F80
3FE0
3070
3038
3018
FE18
FE18
3018
3018
3038
3070
3FE0
3F80
ENDCHAR
STARTCHAR uni018A
ENCODING 394
SWIDTH 818 0
DWIDTH 15 0
BBX 15 13 -2 0
BITMAP
3FE0
6FF8
CC1C
CC0E
0C06
0C06
0C06
0C06
0C06
0C0E
0C1C
0FF8
0FE0
ENDCHAR
STARTCHAR uni018B
ENCODING 395
SWIDTH 686 0
DWIDTH 11 0
BBX 9 13 1 0
BITMAP
3F80
3F80
0180
0180
0180
3F80
7F80
E180
C180
C180
E180
7F80
3F80
ENDCHAR
STARTCHAR uni018C
ENCODING 396
SWIDTH 634 0
DWIDTH 11 0
BBX 9 14 1 0
BITMAP
7F80
7F80
0180
0180
3D80
7F80
E380
C180
C180
C180
C180
E380
7F80
3D80
ENDCHAR
STARTCHAR uni018D
ENCODING 397
SWIDTH 611 0
DWIDTH 12 0
BBX 10 14 1 -4
BITMAP
1F00
7F80
61C0
C0C0
C0C0
C0C0
C0C0
E180
7E00
1F00
0180
4180
7F80
3E00
ENDCHAR
STARTCHAR uni018E
ENCODING 398
SWIDTH 631 0
DWIDTH 11 0
BBX 8 13 1 0
BITMAP
FF
FF
03
03
03
FF
FF
03
03
03
03
FF
FF
ENDCHAR
STARTCHAR uni018F
ENCODING 399
SWIDTH 787 0
DWIDTH 14 0
BBX 12 13 1 0
BITMAP
3F00
7FC0
40E0
0060
0030
0030
FFF0
FFF0
C030
6060
70E0
3FC0
1F80
ENDCHAR
STARTCHAR uni0190
ENCODING 400
SWIDTH 614 0
DWIDTH 10 0
BBX 8 13 1 0
BITMAP
3E
7F
E1
C0
C0
7C
7C
E0
C0
C0
E1
7F
3E
ENDCHAR
STARTCHAR uni0191
ENCODING 401
SWIDTH 575 0
DWIDTH 10 0
BBX 10 17 0 -4
BITMAP
3FC0
3FC0
3000
3000
3000
3F80
3F80
3000
3000
3000
3000
3000
3000
3000
7000
E000
C000
ENDCHAR
STARTCHAR florin
ENCODING 402
SWIDTH 352 0
DWIDTH 6 0
BBX 8 18 -1 -4
BITMAP
0F
1F
18
18
7F
7F
18
18
18
18
18
18
18
18
18
18
F0
E0
ENDCHAR
STARTCHAR uni0193
ENCODING 403
SWIDTH 774 0
DWIDTH 14 0
BBX 13 17 2 0
BITMAP
0018
0038
0060
0060
1FE0
3FE0
7020
6000
C000
C3E0
C3E0
C060
C060
6060
7060
3FC0
1F80
ENDCHAR
STARTCHAR uni0194
ENCODING 404
SWIDTH 686 0
DWIDTH 12 0
BBX 12 17 0 -4
BITMAP
E070
6060
70E0
30C0
39C0
1980
0F00
0F00
0600
0600
0F00
0F00
1980
1980
1980
1F80
0F00
ENDCHAR
STARTCHAR uni0195
ENCODING 405
SWIDTH 983 0
DWIDTH 19 0
BBX 15 14 2 0
BITMAP
C000
C000
C000
C000
DE18
FE1C
E70E
C306
C306
C306
C306
C30E
C3FC
C1F0
ENDCHAR
STARTCHAR uni0196
ENCODING 406
SWIDTH 353 0
DWIDTH 6 0
BBX 4 13 2 0
BITMAP
C0
C0
C0
C0
C0
C0
C0
C0
C0
C0
C0
70
70
ENDCHAR
STARTCHAR uni0197
ENCODING 407
SWIDTH 294 0
DWIDTH 6 0
BBX 5 13 0 0
BITMAP
30
30
30
30
30
30
F8
F8
30
30
30
30
30
ENDCHAR
STARTCHAR uni0198
ENCODING 408
SWIDTH 745 0
DWIDTH 13 0
BBX 12 13 2 0
BITMAP
C1E0
C3F0
C730
DE30
F830
F000
F000
F800
DC00
CE00
C700
C380
C1C0
ENDCHAR
STARTCHAR uni0199
ENCODING 409
SWIDTH 579 0
DWIDTH 10 0
BBX 8 14 2 0
BITMAP
78
F8
C0
C0
C3
C6
CC
D8
F0
F0
D8
CC
C6
C3
ENDCHAR
STARTCHAR uni019A
ENCODING 410
SWIDTH 277 0
DWIDTH 5 0
BBX 6 14 0 0
BITMAP
30
30
30
30
30
30
FC
FC
30
30
30
30
30
30
ENDCHAR
STARTCHAR uni019B
ENCODING 411
SWIDTH 591 0
DWIDTH 12 0
BBX 10 14 1 0
BITMAP
1900
0F80
3E00
7C00
2600
0E00
0E00
1B00
1B00
3300
3180
6180
6180
C0C0
ENDCHAR
STARTCHAR uni019C
ENCODING 412
SWIDTH 974 0
DWIDTH 17 0
BBX 14 13 2 0
BITMAP
C30C
C30C
C30C
C30C
C30C
C30C
C30C
C30C
C30C
C30C
C71C
7DFC
79EC
ENDCHAR
STARTCHAR uni019D
ENCODING 413
SWIDTH 748 0
DWIDTH 14 0
BBX 13 17 -1 -4
BITMAP
1C18
1C18
1E18
1E18
1B18
1B18
1998
18D8
18D8
1878
1878
1838
1838
1800
3800
F000
E000
ENDCHAR
STARTCHAR uni019E
ENCODING 414
SWIDTH 633 0
DWIDTH 11 0
BBX 8 14 2 -4
BITMAP
DE
FE
E7
C3
C3
C3
C3
C3
C3
C3
03
03
03
03
ENDCHAR
STARTCHAR uni019F
ENCODING 415
SWIDTH 787 0
DWIDTH 14 0
BBX 12 13 1 0
BITMAP
1F80
3FC0
70E0
6060
C030
FFF0
FFF0
C030
C030
6060
70E0
3FC0
1F80
ENDCHAR
STARTCHAR Ohorn
ENCODING 416
SWIDTH 913 0
DWIDTH 16 0
BBX 14 14 1 0
BITMAP
0004
1F04
3FF8
70E0
E060
C030
C030
C030
C030
C030
E060
70E0
3FC0
1F00
ENDCHAR
STARTCHAR ohorn
ENCODING 417
SWIDTH 611 0
DWIDTH 11 0
BBX 11 11 1 0
BITMAP
0020
1F20
7FC0
61C0
C0C0
C0C0
C0C0
C0C0
61C0
7F80
1F00
ENDCHAR
STARTCHAR uni01A2
ENCODING 418
SWIDTH 948 0
DWIDTH 18 0
BBX 15 13 1 0
BITMAP
0FF8
3FFC
706E
6066
C066
C066
C066
C066
C066
6066
7066
3FE6
0F86
ENDCHAR
STARTCHAR uni01A3
ENCODING 419
SWIDTH 759 0
DWIDTH 14 0
BBX 12 14 1 -4
BITMAP
3FE0
7FF0
E330
C330
C330
C330
C330
E330
7F30
3E30
0030
0030
0030
0030
ENDCHAR
STARTCHAR uni01A4
ENCODING 420
SWIDTH 651 0
DWIDTH 12 0
BBX 12 13 -2 0
BITMAP
3FC0
6FE0
CC70
CC30
0C30
0C70
0FE0
0FC0
0C00
0C00
0C00
0C00
0C00
ENDCHAR
STARTCHAR uni01A5
ENCODING 421
SWIDTH 634 0
DWIDTH 11 0
BBX 9 18 2 -4
BITMAP
7800
7800
C000
C000
DE00
FF00
E380
C180
C180
C180
C180
E380
FF00
DE00
C000
C000
C000
C000
ENDCHAR
STARTCHAR uni01A6
ENCODING 422
SWIDTH 694 0
DWIDTH 13 0
BBX 10 15 2 -2
BITMAP
C000
C000
FC00
FE00
C700
C300
C300
C700
FE00
FC00
C600
C300
C300
0180
00C0
ENDCHAR
STARTCHAR uni01A7
ENCODING 423
SWIDTH 634 0
DWIDTH 11 0
BBX 9 13 1 0
BITMAP
3E00
7F00
4380
0180
0180
1F00
3E00
6000
C000
C000
E080
7F80
3F00
ENDCHAR
STARTCHAR uni01A8
ENCODING 424
SWIDTH 520 0
DWIDTH 8 0
BBX 7 10 1 0
BITMAP
7C
FE
86
0E
7C
F0
C0
C2
FE
7C
ENDCHAR
STARTCHAR uni01A9
ENCODING 425
SWIDTH 631 0
DWIDTH 11 0
BBX 8 13 2 0
BITMAP
FF
FF
60
30
18
0C
0E
1C
38
70
E0
FF
FF
ENDCHAR
STARTCHAR uni01AA
ENCODING 426
SWIDTH 335 0
DWIDTH 6 0
BBX 9 18 -2 -4
BITMAP
7800
FC00
FF00
7F00
0C00
0C00
0C00
0C00
0C00
0C00
0C00
0C00
0C00
0C00
0C00
0C00
0F80
0780
ENDCHAR
STARTCHAR uni01AB
ENCODING 427
SWIDTH 392 0
DWIDTH 7 0
BBX 6 17 1 -4
BITMAP
60
60
60
FC
FC
60
60
60
60
60
60
7C
3C
0C
0C
3C
38
ENDCHAR
STARTCHAR uni01AC
ENCODING 428
SWIDTH 610 0
DWIDTH 12 0
BBX 11 13 1 0
BITMAP
7FE0
FFE0
CC00
CC00
0C00
0C00
0C00
0C00
0C00
0C00
0C00
0C00
0C00
ENDCHAR
STARTCHAR uni01AD
ENCODING 429
SWIDTH 392 0
DWIDTH 7 0
BBX 6 14 1 0
BITMAP
3C
3C
60
60
FC
FC
60
60
60
60
60
60
7C
3C
ENDCHAR
STARTCHAR uni01AE
ENCODING 430
SWIDTH 610 0
DWIDTH 12 0
BBX 12 17 0 -4
BITMAP
FFF0
FFF0
0600
0600
0600
0600
0600
0600
0600
0600
0600
0600
0600
0600
0700
03C0
01C0
ENDCHAR
STARTCHAR Uhorn
ENCODING 431
SWIDTH 857 0
DWIDTH 15 0
BBX 13 14 2 0
BITMAP
0008
C0C8
C0F8
C0C0
C0C0
C0C0
C0C0
C0C0
C0C0
C0C0
C0C0
E180
7F80
3E00
ENDCHAR
STARTCHAR uhorn
ENCODING 432
SWIDTH 633 0
DWIDTH 11 0
BBX 11 11 2 0
BITMAP
0020
C320
C3E0
C300
C300
C300
C300
C300
E700
7F00
7B00
ENDCHAR
STARTCHAR uni01B1
ENCODING 433
SWIDTH 764 0
DWIDTH 14 0
BBX 12 13 1 0
BITMAP
F9F0
F9F0
30C0
6060
6060
C030
C030
C030
C030
E070
70E0
3FC0
1F80
ENDCHAR
STARTCHAR uni01B2
ENCODING 434
SWIDTH 720 0
DWIDTH 13 0
BBX 11 13 2 0
BITMAP
C000
C000
C380
C1C0
C0C0
C060
C060
C060
C060
C0E0
E1C0
7F80
3E00
ENDCHAR
STARTCHAR uni01B3
ENCODING 435
SWIDTH 743 0
DWIDTH 13 0
BBX 14 13 0 0
BITMAP
E078
70FC
30CC
198C
1F80
0F00
0600
0600
0600
0600
0600
0600
0600
ENDCHAR
STARTCHAR uni01B4
ENCODING 436
SWIDTH 730 0
DWIDTH 13 0
BBX 13 14 1 -4
BITMAP
C070
C0F8
6198
6198
3300
3300
1E00
1E00
0C00
0C00
0800
1800
7800
7000
ENDCHAR
STARTCHAR uni01B5
ENCODING 437
SWIDTH 685 0
DWIDTH 13 0
BBX 11 13 1 0
BITMAP
FFE0
FFE0
01C0
0180
0380
0700
7FC0
7FC0
1800
3000
7000
FFE0
FFE0
ENDCHAR
STARTCHAR uni01B6
ENCODING 438
SWIDTH 524 0
DWIDTH 9 0
BBX 8 10 1 0
BITMAP
FF
FF
06
0E
7E
7E
30
70
FF
FF
ENDCHAR
STARTCHAR uni01B7
ENCODING 439
SWIDTH 666 0
DWIDTH 12 0
BBX 10 13 2 0
BITMAP
FF80
FF80
0300
0700
0E00
0C00
1F00
1F80
01C0
00C0
81C0
FF80
7F00
ENDCHAR
STARTCHAR uni01B8
ENCODING 440
SWIDTH 666 0
DWIDTH 12 0
BBX 10 13 1 0
BITMAP
7FC0
7FC0
3000
3800
1C00
0C00
3E00
7E00
E000
C000
E040
7FC0
3F80
ENDCHAR
STARTCHAR uni01B9
ENCODING 441
SWIDTH 577 0
DWIDTH 10 0
BBX 9 14 1 -4
BITMAP
7F80
7F80
3800
1C00
0E00
1E00
7E00
E000
C000
C000
C000
E080
7F80
1F00
ENDCHAR
STARTCHAR uni01BA
ENCODING 442
SWIDTH 524 0
DWIDTH 9 0
BBX 8 14 1 -4
BITMAP
FF
03
06
0C
18
3C
07
03
06
7C
C0
C0
FE
3E
ENDCHAR
STARTCHAR uni01BB
ENCODING 443
SWIDTH 636 0
DWIDTH 11 0
BBX 9 13 1 0
BITMAP
FE00
C300
0100
0180
0100
0300
7F00
7F00
1800
3000
6000
FF80
FF80
ENDCHAR
STARTCHAR uni01BC
ENCODING 444
SWIDTH 666 0
DWIDTH 12 0
BBX 10 14 1 -1
BITMAP
7F80
7F80
6000
6000
6000
6000
7F00
7F80
01C0
C0C0
C0C0
E1C0
7F80
3F00
ENDCHAR
STARTCHAR uni01BD
ENCODING 445
SWIDTH 577 0
DWIDTH 11 0
BBX 9 14 1 -4
BITMAP
7F00
7F00
6000
6000
6000
6000
7E00
7F00
0380
0180
0180
8380
FF00
7E00
ENDCHAR
STARTCHAR uni01BE
ENCODING 446
SWIDTH 510 0
DWIDTH 9 0
BBX 7 13 1 0
BITMAP
30
30
30
FC
30
30
3C
06
06
06
06
8E
FC
ENDCHAR
STARTCHAR uni01BF
ENCODING 447
SWIDTH 634 0
DWIDTH 12 0
BBX 9 14 2 -4
BITMAP
CF00
FF80
E380
C180
C180
C100
C300
CE00
FC00
F000
E000
C000
C000
C000
ENDCHAR
STARTCHAR uni01C0
ENCODING 448
SWIDTH 294 0
DWIDTH 5 0
BBX 2 18 2 -4
BITMAP
C0
C0
C0
C0
C0
C0
C0
C0
C0
C0
C0
C0
C0
C0
C0
C0
C0
C0
ENDCHAR
STARTCHAR uni01C1
ENCODING 449
SWIDTH 492 0
DWIDTH 9 0
BBX 6 18 2 -4
BITMAP
CC
CC
CC
CC
CC
CC
CC
CC
CC
CC
CC
CC
CC
CC
CC
CC
CC
CC
ENDCHAR
STARTCHAR uni01C2
ENCODING 450
SWIDTH 458 0
DWIDTH 8 0
BBX 8 18 0 -4
BITMAP
18
18
18
18
18
FF
FF
18
18
FF
FF
18
18
18
18
18
18
18
ENDCHAR
STARTCHAR uni01C3
ENCODING 451
SWIDTH 295 0
DWIDTH 5 0
BBX 2 13 2 0
BITMAP
C0
C0
C0
C0
C0
C0
C0
C0
C0
00
00
C0
C0
ENDCHAR
STARTCHAR uni01C4
ENCODING 452
SWIDTH 1421 0
DWIDTH 26 0
BBX 23 16 2 0
BITMAP
000120
0000C0
000000
FE0FFE
FF8FFE
C1C01C
C0E038
C06070
C06060
C060E0
C061C0
C06380
C0E300
C1C600
FF8FFE
FE0FFE
ENDCHAR
STARTCHAR uni01C5
ENCODING 453
SWIDTH 1298 0
DWIDTH 23 0
BBX 20 14 2 0
BITMAP
000260
FE0340
FF8180
C1C000
C0EFF0
C06FF0
C06060
C060E0
C061C0
C06180
C0E300
C1C700
FF8FF0
FE0FF0
ENDCHAR
STARTCHAR uni01C6
ENCODING 454
SWIDTH 1154 0
DWIDTH 21 0
BBX 19 14 1 0
BITMAP
018880
018500
018300
018000
3D9FE0
7F9FE0
E381C0
C18180
C18300
C18700
C18E00
E39C00
7F9FE0
3D9FE0
ENDCHAR
STARTCHAR uni01C7
ENCODING 455
SWIDTH 835 0
DWIDTH 15 0
BBX 12 17 2 -4
BITMAP
C030
C030
C030
C030
C030
C030
C030
C030
C030
C030
C030
FF30
FF30
0030
0030
01F0
01C0
ENDCHAR
STARTCHAR uni01C8
ENCODING 456
SWIDTH 786 0
DWIDTH 14 0
BBX 12 18 2 -4
BITMAP
0030
C030
C000
C000
C030
C030
C030
C030
C030
C030
C030
C030
FF30
FF30
0030
0030
00E0
00E0
ENDCHAR
STARTCHAR uni01C9
ENCODING 457
SWIDTH 456 0
DWIDTH 8 0
BBX 5 18 2 -4
BITMAP
D8
D8
C0
C0
D8
D8
D8
D8
D8
D8
D8
D8
D8
D8
18
18
78
70
ENDCHAR
STARTCHAR uni01CA
ENCODING 458
SWIDTH 931 0
DWIDTH 17 0
BBX 14 17 2 -4
BITMAP
E0CC
E0CC
F0CC
F0CC
D8CC
D8CC
CCCC
C6CC
C6CC
C3CC
C3CC
C1CC
C1CC
000C
001C
0078
0070
ENDCHAR
STARTCHAR uni01CB
ENCODING 459
SWIDTH 923 0
DWIDTH 17 0
BBX 14 18 2 -4
BITMAP
000C
E0CC
E0C0
F0C0
F0CC
D8CC
D8CC
CCCC
C6CC
C6CC
C3CC
C3CC
C1CC
C1CC
000C
001C
0038
0030
ENDCHAR
STARTCHAR uni01CC
ENCODING 460
SWIDTH 797 0
DWIDTH 14 0
BBX 12 18 2 -4
BITMAP
0030
0030
0000
0000
DE30
FE30
E730
C330
C330
C330
C330
C330
C330
C330
0030
0030
00E0
00E0
ENDCHAR
STARTCHAR uni01CD
ENCODING 461
SWIDTH 684 0
DWIDTH 12 0
BBX 12 16 0 0
BITMAP
0900
0600
0000
0600
0600
0F00
0F00
1980
1980
1980
30C0
3FC0
7FE0
6060
6060
C030
ENDCHAR
STARTCHAR uni01CE
ENCODING 462
SWIDTH 612 0
DWIDTH 10 0
BBX 8 14 1 0
BITMAP
66
3C
18
00
3C
7E
47
03
3F
FF
C3
C7
FF
7B
ENDCHAR
STARTCHAR uni01CF
ENCODING 463
SWIDTH 294 0
DWIDTH 6 0
BBX 4 16 1 0
BITMAP
90
60
00
60
60
60
60
60
60
60
60
60
60
60
60
60
ENDCHAR
STARTCHAR uni01D0
ENCODING 464
SWIDTH 277 0
DWIDTH 5 0
BBX 6 14 0 0
BITMAP
CC
78
30
00
30
30
30
30
30
30
30
30
30
30
ENDCHAR
STARTCHAR uni01D1
ENCODING 465
SWIDTH 787 0
DWIDTH 14 0
BBX 12 16 1 0
BITMAP
0900
0600
0000
1F80
3FC0
70E0
6060
C030
C030
C030
C030
C030
6060
70E0
3FC0
1F80
ENDCHAR
STARTCHAR uni01D2
ENCODING 466
SWIDTH 611 0
DWIDTH 11 0
BBX 10 14 1 0
BITMAP
3300
1E00
0C00
0000
1E00
7F80
6180
C0C0
C0C0
C0C0
C0C0
6180
7F80
1E00
ENDCHAR
STARTCHAR uni01D3
ENCODING 467
SWIDTH 731 0
DWIDTH 14 0
BBX 10 16 2 0
BITMAP
1200
0C00
0000
C0C0
C0C0
C0C0
C0C0
C0C0
C0C0
C0C0
C0C0
C0C0
C0C0
6180
7F80
3F00
ENDCHAR
STARTCHAR uni01D4
ENCODING 468
SWIDTH 633 0
DWIDTH 11 0
BBX 8 14 2 0
BITMAP
66
3C
18
00
C3
C3
C3
C3
C3
C3
C3
E7
7F
7B
ENDCHAR
STARTCHAR uni01D5
ENCODING 469
SWIDTH 731 0
DWIDTH 14 0
BBX 10 18 2 0
BITMAP
3E00
3E00
3300
3300
0000
C0C0
C0C0
C0C0
C0C0
C0C0
C0C0
C0C0
C0C0
C0C0
C0C0
6180
7F80
3F00
ENDCHAR
STARTCHAR uni01D6
ENCODING 470
SWIDTH 633 0
DWIDTH 11 0
BBX 8 16 2 0
BITMAP
7C
7C
66
66
00
00
C3
C3
C3
C3
C3
C3
C3
E7
7F
7B
ENDCHAR
STARTCHAR uni01D7
ENCODING 471
SWIDTH 731 0
DWIDTH 14 0
BBX 10 18 2 0
BITMAP
0400
0800
3300
3300
0000
C0C0
C0C0
C0C0
C0C0
C0C0
C0C0
C0C0
C0C0
C0C0
C0C0
6180
7F80
3F00
ENDCHAR
STARTCHAR uni01D8
ENCODING 472
SWIDTH 633 0
DWIDTH 11 0
BBX 8 15 2 0
BITMAP
08
10
66
66
00
C3
C3
C3
C3
C3
C3
C3
E7
7F
7B
ENDCHAR
STARTCHAR uni01D9
ENCODING 473
SWIDTH 731 0
DWIDTH 14 0
BBX 10 18 2 0
BITMAP
1600
1C00
3300
3300
0000
C0C0
C0C0
C0C0
C0C0
C0C0
C0C0
C0C0
C0C0
C0C0
C0C0
6180
7F80
3F00
ENDCHAR
STARTCHAR uni01DA
ENCODING 474
SWIDTH 633 0
DWIDTH 11 0
BBX 8 15 2 0
BITMAP
2C
38
66
66
00
C3
C3
C3
C3
C3
C3
C3
E7
7F
7B
ENDCHAR
STARTCHAR uni01DB
ENCODING 475
SWIDTH 731 0
DWIDTH 14 0
BBX 10 18 2 0
BITMAP
3800
1C00
3300
3300
0000
C0C0
C0C0
C0C0
C0C0
C0C0
C0C0
C0C0
C0C0
C0C0
C0C0
6180
7F80
3F00
ENDCHAR
STARTCHAR uni01DC
ENCODING 476
SWIDTH 633 0
DWIDTH 11 0
BBX 8 15 2 0
BITMAP
70
38
66
66
00
C3
C3
C3
C3
C3
C3
C3
E7
7F
7B
ENDCHAR
STARTCHAR uni01DD
ENCODING 477
SWIDTH 615 0
DWIDTH 11 0
BBX 10 10 1 0
BITMAP
7E00
FF80
8180
00C0
FFC0
FFC0
C0C0
E180
7F80
3E00
ENDCHAR
STARTCHAR uni01DE
ENCODING 478
SWIDTH 684 0
DWIDTH 12 0
BBX 12 18 0 0
BITMAP
0F80
0F80
0CC0
0CC0
0000
0600
0600
0F00
0F00
1980
1980
1980
30C0
3FC0
7FE0
6060
6060
C030
ENDCHAR
STARTCHAR uni01DF
ENCODING 479
SWIDTH 612 0
DWIDTH 10 0
BBX 8 16 1 0
BITMAP
3E
3E
66
66
00
00
3C
7E
47
03
3F
FF
C3
C7
FF
7B
ENDCHAR
STARTCHAR uni01E0
ENCODING 480
SWIDTH 684 0
DWIDTH 12 0
BBX 12 18 0 0
BITMAP
0F80
0F80
0300
0300
0000
0600
0600
0F00
0F00
1980
1980
1980
30C0
3FC0
7FE0
6060
6060
C030
ENDCHAR
STARTCHAR uni01E1
ENCODING 481
SWIDTH 612 0
DWIDTH 10 0
BBX 8 15 1 0
BITMAP
3E
3E
0C
0C
00
3C
7E
47
03
3F
FF
C3
C7
FF
7B
ENDCHAR
STARTCHAR uni01E2
ENCODING 482
SWIDTH 974 0
DWIDTH 17 0
BBX 16 16 0 0
BITMAP
00F8
00F8
0000
07FF
07FF
06C0
0CC0
0CC0
18FF
18FF
30C0
3FC0
3FC0
60C0
60FF
C0FF
ENDCHAR
STARTCHAR uni01E3
ENCODING 483
SWIDTH 981 0
DWIDTH 17 0
BBX 15 13 1 0
BITMAP
07C0
07C0
0000
3C78
7EFC
478E
0306
3FFE
FFFE
C300
C782
FDFE
787C
ENDCHAR
STARTCHAR uni01E4
ENCODING 484
SWIDTH 774 0
DWIDTH 14 0
BBX 12 13 1 0
BITMAP
0FC0
3FE0
7020
6000
C000
C3C0
C3E0
C060
C1F0
6060
7060
3FC0
1F80
ENDCHAR
STARTCHAR uni01E5
ENCODING 485
SWIDTH 634 0
DWIDTH 11 0
BBX 10 14 1 -4
BITMAP
3D80
7F80
E380
C180
C180
C180
C180
E380
7F80
3D80
7FC0
4300
7F00
3C00
ENDCHAR
STARTCHAR Gcaron
ENCODING 486
SWIDTH 774 0
DWIDTH 14 0
BBX 11 16 1 0
BITMAP
0900
0600
0000
0FC0
3FE0
7020
6000
C000
C3E0
C3E0
C060
C060
6060
7060
3FC0
1F80
ENDCHAR
STARTCHAR gcaron
ENCODING 487
SWIDTH 634 0
DWIDTH 11 0
BBX 9 18 1 -4
BITMAP
2200
1600
0C00
0000
3D80
7F80
E380
C180
C180
C180
C180
E380
7F80
3D80
0180
4300
7F00
3E00
ENDCHAR
STARTCHAR uni01E8
ENCODING 488
SWIDTH 655 0
DWIDTH 12 0
BBX 10 16 2 0
BITMAP
2400
1800
0000
C180
C300
C600
CC00
D800
F000
F000
D800
CC00
C600
C300
C180
C0C0
ENDCHAR
STARTCHAR uni01E9
ENCODING 489
SWIDTH 579 0
DWIDTH 10 0
BBX 9 16 1 0
BITMAP
9000
6000
0000
6000
6000
6000
6180
6300
6600
6C00
7800
7800
6C00
6600
6300
6180
ENDCHAR
STARTCHAR uni01EA
ENCODING 490
SWIDTH 787 0
DWIDTH 14 0
BBX 12 16 1 -3
BITMAP
1F80
3FC0
70E0
6060
C030
C030
C030
C030
C030
6060
70E0
3FC0
1F80
0600
0600
0700
ENDCHAR
STARTCHAR uni01EB
ENCODING 491
SWIDTH 611 0
DWIDTH 11 0
BBX 10 13 1 -3
BITMAP
1E00
7F80
6180
C0C0
C0C0
C0C0
C0C0
6180
7F80
1E00
0800
1800
1C00
ENDCHAR
STARTCHAR uni01EC
ENCODING 492
SWIDTH 787 0
DWIDTH 14 0
BBX 12 19 1 -3
BITMAP
0F80
0F80
0000
1F80
3FC0
70E0
6060
C030
C030
C030
C030
C030
6060
70E0
3FC0
1F80
0600
0600
0700
ENDCHAR
STARTCHAR uni01ED
ENCODING 493
SWIDTH 611 0
DWIDTH 11 0
BBX 10 16 1 -3
BITMAP
3E00
3E00
0000
1E00
7F80
6180
C0C0
C0C0
C0C0
C0C0
6180
7F80
1E00
0800
1800
1C00
ENDCHAR
STARTCHAR uni01EE
ENCODING 494
SWIDTH 666 0
DWIDTH 12 0
BBX 10 16 2 0
BITMAP
2400
1800
0000
FF80
FF80
0300
0700
0E00
0C00
1F00
1F80
01C0
00C0
81C0
FF80
7F00
ENDCHAR
STARTCHAR uni01EF
ENCODING 495
SWIDTH 577 0
DWIDTH 10 0
BBX 9 18 1 -4
BITMAP
2600
3400
1800
0000
FF00
FF00
0E00
1C00
3800
3C00
3F00
0380
0180
0180
0180
8380
FF00
7C00
ENDCHAR
STARTCHAR uni01F0
ENCODING 496
SWIDTH 277 0
DWIDTH 5 0
BBX 6 18 0 -4
BITMAP
CC
78
30
00
30
30
30
30
30
30
30
30
30
30
30
30
F0
E0
ENDCHAR
STARTCHAR uni01F1
ENCODING 497
SWIDTH 1421 0
DWIDTH 26 0
BBX 23 13 2 0
BITMAP
FE0FFE
FF8FFE
C1C01C
C0E038
C06070
C06060
C060E0
C061C0
C06380
C0E300
C1C600
FF8FFE
FE0FFE
ENDCHAR
STARTCHAR uni01F2
ENCODING 498
SWIDTH 1298 0
DWIDTH 23 0
BBX 20 13 2 0
BITMAP
FE0000
FF8000
C1C000
C0EFF0
C06FF0
C06060
C060E0
C061C0
C06180
C0E300
C1C700
FF8FF0
FE0FF0
ENDCHAR
STARTCHAR uni01F3
ENCODING 499
SWIDTH 1154 0
DWIDTH 21 0
BBX 19 14 1 0
BITMAP
018000
018000
018000
018000
3D9FE0
7F9FE0
E381C0
C18180
C18300
C18700
C18E00
E39C00
7F9FE0
3D9FE0
ENDCHAR
STARTCHAR uni01F4
ENCODING 500
SWIDTH 774 0
DWIDTH 14 0
BBX 11 16 1 0
BITMAP
0200
0400
0000
0FC0
3FE0
7020
6000
C000
C3E0
C3E0
C060
C060
6060
7060
3FC0
1F80
ENDCHAR
STARTCHAR uni01F5
ENCODING 501
SWIDTH 634 0
DWIDTH 11 0
BBX 9 18 1 -4
BITMAP
0C00
1800
1000
0000
3D80
7F80
E380
C180
C180
C180
C180
E380
7F80
3D80
0180
4300
7F00
3E00
ENDCHAR
STARTCHAR uni01F6
ENCODING 502
SWIDTH 1112 0
DWIDTH 20 0
BBX 17 13 2 0
BITMAP
C0C000
C0C000
C0C000
C0C180
C0C180
FFC180
FFC180
C0C180
C0C180
C0C180
C0E380
C07F00
C03E00
ENDCHAR
STARTCHAR uni01F7
ENCODING 503
SWIDTH 682 0
DWIDTH 13 0
BBX 10 17 2 -4
BITMAP
CF80
FFC0
F1C0
C0C0
C0C0
C0C0
C180
C300
CE00
FC00
F800
E000
C000
C000
C000
C000
C000
ENDCHAR
STARTCHAR uni01F8
ENCODING 504
SWIDTH 748 0
DWIDTH 14 0
BBX 10 16 2 0
BITMAP
1C00
0C00
0000
E0C0
E0C0
F0C0
F0C0
D8C0
D8C0
CCC0
C6C0
C6C0
C3C0
C3C0
C1C0
C1C0
ENDCHAR
STARTCHAR uni01F9
ENCODING 505
SWIDTH 633 0
DWIDTH 11 0
BBX 8 14 2 0
BITMAP
18
08
04
00
DE
FE
E7
C3
C3
C3
C3
C3
C3
C3
ENDCHAR
STARTCHAR Aringacute
ENCODING 506
SWIDTH 684 0
DWIDTH 12 0
BBX 12 17 0 0
BITMAP
0600
0920
0940
0900
0600
0600
0F00
0F00
1980
1980
1980
30C0
3FC0
7FE0
6060
6060
C030
ENDCHAR
STARTCHAR aringacute
ENCODING 507
SWIDTH 612 0
DWIDTH 10 0
BBX 9 16 1 0
BITMAP
1C80
2300
2200
2200
1C00
0000
3C00
7E00
4700
0300
3F00
FF00
C300
C700
FF00
7B00
ENDCHAR
STARTCHAR AEacute
ENCODING 508
SWIDTH 974 0
DWIDTH 17 0
BBX 16 16 0 0
BITMAP
0020
0040
0000
07FF
07FF
06C0
0CC0
0CC0
18FF
18FF
30C0
3FC0
3FC0
60C0
60FF
C0FF
ENDCHAR
STARTCHAR aeacute
ENCODING 509
SWIDTH 981 0
DWIDTH 17 0
BBX 15 14 1 0
BITMAP
0180
0300
0200
0000
3C78
7EFC
478E
0306
3FFE
FFFE
C300
C782
FDFE
787C
ENDCHAR
STARTCHAR Oslashacute
ENCODING 510
SWIDTH 787 0
DWIDTH 14 0
BBX 12 16 1 0
BITMAP
0200
0400
0000
1F10
3FA0
70E0
E0E0
C1B0
C330
C630
CC30
D830
7070
70E0
5FC0
8F80
ENDCHAR
STARTCHAR oslashacute
ENCODING 511
SWIDTH 611 0
DWIDTH 11 0
BBX 10 15 1 -1
BITMAP
0C00
1800
1000
0040
1E40
7F80
6180
C2C0
C4C0
C8C0
D0C0
6180
7F80
9E00
8000
ENDCHAR
STARTCHAR uni0200
ENCODING 512
SWIDTH 684 0
DWIDTH 12 0
BBX 12 16 0 0
BITMAP
1B00
0D80
0000
0600
0600
0F00
0F00
1980
1980
1980
30C0
3FC0
7FE0
6060
6060
C030
ENDCHAR
STARTCHAR uni0201
ENCODING 513
SWIDTH 612 0
DWIDTH 10 0
BBX 8 14 1 0
BITMAP
24
34
12
00
3C
7E
47
03
3F
FF
C3
C7
FF
7B
ENDCHAR
STARTCHAR uni0202
ENCODING 514
SWIDTH 684 0
DWIDTH 12 0
BBX 12 16 0 0
BITMAP
0F80
1880
0000
0600
0600
0F00
0F00
1980
1980
1980
30C0
3FC0
7FE0
6060
6060
C030
ENDCHAR
STARTCHAR uni0203
ENCODING 515
SWIDTH 612 0
DWIDTH 10 0
BBX 8 14 1 0
BITMAP
3C
42
00
00
3C
7E
47
03
3F
FF
C3
C7
FF
7B
ENDCHAR
STARTCHAR uni0204
ENCODING 516
SWIDTH 631 0
DWIDTH 11 0
BBX 8 16 2 0
BITMAP
48
24
00
FF
FF
C0
C0
C0
FF
FF
C0
C0
C0
C0
FF
FF
ENDCHAR
STARTCHAR uni0205
ENCODING 517
SWIDTH 615 0
DWIDTH 11 0
BBX 10 14 1 0
BITMAP
2400
1200
1200
0000
1F00
7F80
61C0
C0C0
FFC0
FFC0
C000
6040
7FC0
1F80
ENDCHAR
STARTCHAR uni0206
ENCODING 518
SWIDTH 631 0
DWIDTH 11 0
BBX 8 16 2 0
BITMAP
3C
42
00
FF
FF
C0
C0
C0
FF
FF
C0
C0
C0
C0
FF
FF
ENDCHAR
STARTCHAR uni0207
ENCODING 519
SWIDTH 615 0
DWIDTH 11 0
BBX 10 14 1 0
BITMAP
3E00
2200
0000
0000
1F00
7F80
61C0
C0C0
FFC0
FFC0
C000
6040
7FC0
1F80
ENDCHAR
STARTCHAR uni0208
ENCODING 520
SWIDTH 294 0
DWIDTH 6 0
BBX 5 16 0 0
BITMAP
D0
48
00
30
30
30
30
30
30
30
30
30
30
30
30
30
ENDCHAR
STARTCHAR uni0209
ENCODING 521
SWIDTH 277 0
DWIDTH 5 0
BBX 5 14 0 0
BITMAP
90
48
48
00
30
30
30
30
30
30
30
30
30
30
ENDCHAR
STARTCHAR uni020A
ENCODING 522
SWIDTH 294 0
DWIDTH 6 0
BBX 6 16 0 0
BITMAP
F8
8C
00
30
30
30
30
30
30
30
30
30
30
30
30
30
ENDCHAR
STARTCHAR uni020B
ENCODING 523
SWIDTH 277 0
DWIDTH 5 0
BBX 6 14 -1 0
BITMAP
78
84
00
00
18
18
18
18
18
18
18
18
18
18
ENDCHAR
STARTCHAR uni020C
ENCODING 524
SWIDTH 787 0
DWIDTH 14 0
BBX 12 16 1 0
BITMAP
1B00
0D80
0000
1F80
3FC0
70E0
6060
C030
C030
C030
C030
C030
6060
70E0
3FC0
1F80
ENDCHAR
STARTCHAR uni020D
ENCODING 525
SWIDTH 611 0
DWIDTH 11 0
BBX 10 14 1 0
BITMAP
2400
3600
1200
0000
1E00
7F80
6180
C0C0
C0C0
C0C0
C0C0
6180
7F80
1E00
ENDCHAR
STARTCHAR uni020E
ENCODING 526
SWIDTH 787 0
DWIDTH 14 0
BBX 12 16 1 0
BITMAP
0F00
1080
0000
1F80
3FC0
70E0
6060
C030
C030
C030
C030
C030
6060
70E0
3FC0
1F80
ENDCHAR
STARTCHAR uni020F
ENCODING 527
SWIDTH 611 0
DWIDTH 11 0
BBX 10 14 1 0
BITMAP
3C00
6200
0000
0000
1E00
7F80
6180
C0C0
C0C0
C0C0
C0C0
6180
7F80
1E00
ENDCHAR
STARTCHAR uni0210
ENCODING 528
SWIDTH 694 0
DWIDTH 13 0
BBX 10 16 2 0
BITMAP
D800
6C00
0000
FC00
FE00
C700
C300
C300
C700
FE00
FC00
C600
C300
C300
C180
C1C0
ENDCHAR
STARTCHAR uni0211
ENCODING 529
SWIDTH 411 0
DWIDTH 8 0
BBX 6 14 2 0
BITMAP
90
D0
48
00
DC
FC
E0
C0
C0
C0
C0
C0
C0
C0
ENDCHAR
STARTCHAR uni0212
ENCODING 530
SWIDTH 694 0
DWIDTH 13 0
BBX 10 16 2 0
BITMAP
7C00
4400
0000
FC00
FE00
C700
C300
C300
C700
FE00
FC00
C600
C300
C300
C180
C1C0
ENDCHAR
STARTCHAR uni0213
ENCODING 531
SWIDTH 411 0
DWIDTH 8 0
BBX 7 14 1 0
BITMAP
7C
C4
00
00
6E
7E
70
60
60
60
60
60
60
60
ENDCHAR
STARTCHAR uni0214
ENCODING 532
SWIDTH 731 0
DWIDTH 14 0
BBX 10 16 2 0
BITMAP
2400
1200
0000
C0C0
C0C0
C0C0
C0C0
C0C0
C0C0
C0C0
C0C0
C0C0
C0C0
6180
7F80
3F00
ENDCHAR
STARTCHAR uni0215
ENCODING 533
SWIDTH 633 0
DWIDTH 11 0
BBX 8 14 2 0
BITMAP
68
24
36
00
C3
C3
C3
C3
C3
C3
C3
E7
7F
7B
ENDCHAR
STARTCHAR uni0216
ENCODING 534
SWIDTH 731 0
DWIDTH 14 0
BBX 10 16 2 0
BITMAP
3E00
2200
0000
C0C0
C0C0
C0C0
C0C0
C0C0
C0C0
C0C0
C0C0
C0C0
C0C0
6180
7F80
3F00
ENDCHAR
STARTCHAR uni0217
ENCODING 535
SWIDTH 633 0
DWIDTH 11 0
BBX 8 14 2 0
BITMAP
7C
44
00
00
C3
C3
C3
C3
C3
C3
C3
E7
7F
7B
ENDCHAR
STARTCHAR Scommaaccent
ENCODING 536
SWIDTH 634 0
DWIDTH 11 0
BBX 9 18 1 -5
BITMAP
3E00
7F00
E100
C000
C000
7C00
3F00
0380
0180
0180
8380
FF00
7E00
0000
0000
0C00
0800
1800
ENDCHAR
STARTCHAR scommaaccent
ENCODING 537
SWIDTH 520 0
DWIDTH 8 0
BBX 7 15 1 -5
BITMAP
7C
FE
C2
E0
7C
1E
06
86
FE
7C
00
00
18
10
10
ENDCHAR
STARTCHAR uni021A
ENCODING 538
SWIDTH 610 0
DWIDTH 12 0
BBX 12 18 0 -5
BITMAP
FFF0
FFF0
0600
0600
0600
0600
0600
0600
0600
0600
0600
0600
0600
0000
0000
0400
0C00
0800
ENDCHAR
STARTCHAR uni021B
ENCODING 539
SWIDTH 392 0
DWIDTH 7 0
BBX 6 18 1 -5
BITMAP
60
60
60
FC
FC
60
60
60
60
60
60
7C
3C
00
00
18
10
30
ENDCHAR
ENDFONT
